<svg width="319" height="260" viewBox="0 0 319 260" fill="none" xmlns="http://www.w3.org/2000/svg">
<mask id="mask0_20_705" style="mask-type:alpha" maskUnits="userSpaceOnUse" x="-1" y="0" width="320" height="260">
<rect x="318.5" y="0.500018" width="259" height="319" transform="rotate(90 318.5 0.500018)" fill="url(#paint0_linear_20_705)" stroke="#6246E5"/>
</mask>
<g mask="url(#mask0_20_705)">
<path d="M169.19 242.141C169.189 292.107 131.757 332.545 85.6633 332.545C39.5695 332.545 2.13719 292.107 2.13696 242.141C2.13696 192.174 39.5694 151.735 85.6633 151.735C131.757 151.735 169.19 192.174 169.19 242.141Z" stroke="#E5E5E5"/>
<path d="M187.985 234.963C187.985 290.875 146.098 336.133 94.5085 336.133C42.9191 336.133 1.03202 290.875 1.03198 234.963C1.03198 179.051 42.9191 133.793 94.5085 133.793C146.098 133.793 187.985 179.051 187.985 234.963Z" stroke="#E5E5E5"/>
<path d="M204.017 228.982C204.017 290.179 158.17 339.721 101.695 339.722C45.2209 339.722 -0.626959 290.18 -0.626957 228.982C-0.626715 167.786 45.2211 118.244 101.695 118.244C158.169 118.244 204.016 167.786 204.017 228.982Z" stroke="#E5E5E5"/>
<path d="M222.259 223.001C222.259 288.823 172.947 342.114 112.199 342.114C51.4501 342.114 2.1372 288.823 2.1372 223.001C2.13733 157.18 51.4502 103.89 112.199 103.89C172.947 103.89 222.259 157.18 222.259 223.001Z" stroke="#E5E5E5"/>
<path d="M239.949 217.321C239.949 287.601 187.296 344.506 122.426 344.506C57.5556 344.506 4.90146 287.601 4.90136 217.321C4.90137 147.04 57.5555 90.1353 122.426 90.1353C187.296 90.1355 239.949 147.041 239.949 217.321Z" stroke="#E5E5E5"/>
<path d="M263.167 207.751C263.167 284.968 205.316 347.497 134.034 347.497C62.7523 347.497 4.90112 284.968 4.90112 207.751C4.90133 130.535 62.7524 68.0074 134.034 68.0073C205.316 68.0073 263.167 130.535 263.167 207.751Z" stroke="#E5E5E5"/>
</g>
<defs>
<linearGradient id="paint0_linear_20_705" x1="503.402" y1="8.97798" x2="345.225" y2="332.81" gradientUnits="userSpaceOnUse">
<stop stop-color="#747DEF"/>
<stop offset="1" stop-color="#5E3BE1"/>
</linearGradient>
</defs>
</svg>
