<svg width="159" height="29" viewBox="0 0 159 29" fill="none" xmlns="http://www.w3.org/2000/svg">
<path d="M0.528 9.288V4.2H15.288V9.288H13.824L12.84 6.048H9.864V19.128L12.072 19.656V21H3.744V19.656L5.952 19.128V6.048H2.952L1.968 9.288H0.528ZM16.5203 21V19.728L18.5603 19.248V11.184H16.5203V9.912L20.3603 9H22.2563V10.44C23.4563 9.24 24.8803 8.64 26.5283 8.64C26.6243 8.944 26.6723 9.28 26.6723 9.648C26.6723 10.384 26.5923 11.072 26.4323 11.712L23.4083 11.208C23.0243 11.384 22.6403 11.64 22.2563 11.976V19.248L24.7763 19.728V21H16.5203ZM27.8674 18.024C27.8674 16.632 28.4354 15.576 29.5714 14.856C30.7234 14.12 32.5794 13.752 35.1394 13.752V13.032C35.1394 12.552 35.1314 12.208 35.1154 12C35.1154 11.776 35.0834 11.512 35.0194 11.208C34.9554 10.904 34.8594 10.688 34.7314 10.56C34.6194 10.432 34.4434 10.32 34.2034 10.224C33.9634 10.112 33.6674 10.056 33.3154 10.056L30.2674 12.696C29.1794 12.072 28.6354 11.104 28.6354 9.792L29.3554 9.48C29.6594 9.352 30.2514 9.184 31.1314 8.976C32.0114 8.752 32.8674 8.64 33.6994 8.64C37.1394 8.64 38.8594 10.016 38.8594 12.768V19.2H40.7314V20.232C40.6514 20.312 40.5394 20.416 40.3954 20.544C40.2514 20.672 39.9394 20.84 39.4594 21.048C38.9794 21.256 38.4834 21.36 37.9714 21.36C36.7554 21.36 35.8514 20.952 35.2594 20.136C34.1874 20.952 33.0194 21.36 31.7554 21.36C30.6514 21.36 29.7234 21.08 28.9714 20.52C28.2354 19.96 27.8674 19.128 27.8674 18.024ZM31.7314 17.808C31.7314 18.272 31.8834 18.64 32.1874 18.912C32.5074 19.184 32.8914 19.32 33.3394 19.32C34.0594 19.32 34.6594 19.056 35.1394 18.528V15.24C34.2434 15.24 33.4514 15.48 32.7634 15.96C32.0754 16.424 31.7314 17.04 31.7314 17.808ZM40.5313 10.272V9H47.8753V10.272L46.2433 10.656L48.6673 16.392L51.0433 10.68L49.4593 10.272V9H54.6673V10.272L52.6513 10.8L48.3793 21.168H46.6993L42.2593 10.776L40.5313 10.272ZM55.2051 14.856C55.2051 12.968 55.7331 11.464 56.7891 10.344C57.8611 9.208 59.3091 8.64 61.1331 8.64C62.9891 8.64 64.3891 9.272 65.3331 10.536C66.2931 11.8 66.7731 13.36 66.7731 15.216H58.9011C59.0131 16.4 59.4371 17.424 60.1731 18.288C60.9091 19.136 61.8531 19.56 63.0051 19.56C63.8691 19.56 64.7971 19.376 65.7891 19.008L66.2931 20.376C64.8051 21.032 63.3491 21.36 61.9251 21.36C59.8611 21.36 58.2211 20.76 57.0051 19.56C55.8051 18.344 55.2051 16.776 55.2051 14.856ZM58.9011 13.728L62.9571 13.464C62.9571 13.08 62.9331 12.728 62.8851 12.408C62.8371 12.072 62.7011 11.672 62.4771 11.208C62.0771 10.536 61.6051 10.2 61.0611 10.2C60.4211 10.2 59.8931 10.528 59.4771 11.184C59.2371 11.584 59.0771 12.024 58.9971 12.504C58.9171 12.984 58.8851 13.392 58.9011 13.728ZM67.9472 21V19.728L69.9872 19.248V3.984H67.9472V2.712L71.7872 1.8H73.6832V19.248L75.7232 19.728V21H67.9472ZM77.0076 21V19.656L79.2156 19.128V6.072L77.0076 5.544V4.2H89.7516V9.12H88.3356L87.3756 6.048H83.1276V11.616L87.5916 11.208V13.584L83.1276 13.224V19.152H87.4236L89.0556 15.816H90.4716L89.7516 21H77.0076ZM92.1968 18.024C92.1968 16.632 92.7648 15.576 93.9008 14.856C95.0528 14.12 96.9088 13.752 99.4688 13.752V13.032C99.4688 12.552 99.4608 12.208 99.4448 12C99.4448 11.776 99.4128 11.512 99.3488 11.208C99.2848 10.904 99.1888 10.688 99.0608 10.56C98.9488 10.432 98.7728 10.32 98.5328 10.224C98.2928 10.112 97.9968 10.056 97.6448 10.056L94.5968 12.696C93.5088 12.072 92.9648 11.104 92.9648 9.792L93.6848 9.48C93.9888 9.352 94.5808 9.184 95.4608 8.976C96.3408 8.752 97.1968 8.64 98.0288 8.64C101.469 8.64 103.189 10.016 103.189 12.768V19.2H105.061V20.232C104.981 20.312 104.869 20.416 104.725 20.544C104.581 20.672 104.269 20.84 103.789 21.048C103.309 21.256 102.813 21.36 102.301 21.36C101.085 21.36 100.181 20.952 99.5888 20.136C98.5168 20.952 97.3488 21.36 96.0848 21.36C94.9808 21.36 94.0528 21.08 93.3008 20.52C92.5648 19.96 92.1968 19.128 92.1968 18.024ZM96.0608 17.808C96.0608 18.272 96.2128 18.64 96.5168 18.912C96.8368 19.184 97.2208 19.32 97.6688 19.32C98.3888 19.32 98.9888 19.056 99.4688 18.528V15.24C98.5728 15.24 97.7808 15.48 97.0928 15.96C96.4048 16.424 96.0608 17.04 96.0608 17.808ZM106.363 20.808V17.376H107.707L108.571 19.752C109.147 19.784 109.603 19.8 109.939 19.8C111.811 19.8 112.747 19.392 112.747 18.576C112.747 18.24 112.579 17.952 112.243 17.712C111.907 17.456 111.587 17.256 111.283 17.112C110.979 16.968 110.403 16.712 109.555 16.344C108.451 15.864 107.643 15.32 107.131 14.712C106.635 14.088 106.387 13.288 106.387 12.312C106.387 11.112 106.867 10.2 107.827 9.576C108.803 8.952 110.075 8.64 111.643 8.64C113.067 8.64 114.291 8.792 115.315 9.096V12.36H114.067L113.323 10.248C112.843 10.168 112.363 10.128 111.883 10.128C110.347 10.128 109.579 10.504 109.579 11.256C109.579 11.448 109.651 11.648 109.795 11.856C109.939 12.064 110.195 12.272 110.563 12.48C110.947 12.688 111.547 12.968 112.363 13.32C113.819 13.976 114.803 14.616 115.315 15.24C115.827 15.848 116.083 16.672 116.083 17.712C116.083 18.896 115.595 19.8 114.619 20.424C113.643 21.048 112.347 21.36 110.731 21.36C109.211 21.36 107.755 21.176 106.363 20.808ZM116.934 10.272V9H124.35V10.272L122.766 10.56L125.862 16.728L128.118 10.728L126.294 10.272V9H131.862V10.272L129.87 10.824L123.174 28.176H122.742C122.262 28.176 121.806 28.072 121.374 27.864C120.958 27.656 120.662 27.4 120.486 27.096L123.966 21.552L118.734 10.776L116.934 10.272Z" fill="#222222"/>
<path d="M141.641 8.46058C141.794 8.26583 141.996 8.00221 142.157 7.81379C142.641 7.29446 142.704 7.22638 143.144 6.84242C143.275 6.74108 143.43 6.61917 143.581 6.50437C142.464 7.39896 142.322 8.38933 143.347 9.00129C143.345 9.00129 143.345 9.00129 143.345 9.00287C144.779 9.81987 147.92 9.64333 150.399 8.59675C152.8 7.58342 153.687 6.13388 152.502 5.27254C151.461 5.08808 150.221 5.06671 148.909 5.23296L148.772 5.02L148.885 4.66692C149.657 4.60121 150.39 4.61704 151.023 4.71917C151.176 4.74371 151.378 4.78567 151.528 4.81575C151.819 4.88304 151.978 4.92342 152.168 4.98121C152.362 5.03583 152.527 5.09046 152.816 5.19179C153.099 5.29708 153.221 5.34458 153.448 5.45146C153.702 5.56108 153.949 5.68506 154.187 5.82275C156.075 6.94612 154.901 8.99575 151.569 10.4002C148.247 11.7998 144.013 12.0199 142.116 10.91C142.115 10.9084 142.112 10.9068 142.107 10.9053H142.111C141.075 10.2846 140.966 9.38367 141.641 8.46058ZM150.285 16.3139L150.259 15.052L149.31 14.0545C146.178 14.7258 143.099 14.5817 141.387 13.6278C141.381 13.6215 141.367 13.6151 141.361 13.6088C140.392 13.0443 140.152 12.316 140.225 11.5243C139.998 12.6825 139.98 13.1005 140.013 14.0917C140.053 14.7124 140.432 15.2847 141.194 15.736L141.2 15.7423C143.025 16.8158 146.828 17.0486 150.285 16.3139ZM154.24 17.7587C149.818 19.4362 144.285 19.5352 141.881 17.9827C142.141 18.5828 142.494 19.1427 142.929 19.6437C145.135 21.0687 150.214 20.9776 154.271 19.4378C156.645 18.5377 158.143 17.3399 158.536 16.2173L158.647 15.8793C158.909 15.0227 158.958 14.3094 159 13.6745C158.952 15.0528 157.236 16.6203 154.24 17.7587ZM144.48 20.9895C144.619 21.1146 145.056 21.622 147.269 22.1825C147.868 22.3076 149.374 22.709 152.157 22.1255L152.173 21.8857L151.953 21.5595C149.372 22.1374 146.503 21.9442 144.48 20.9895ZM150.869 11.0074L153.22 12.6928C153.22 12.6928 153.723 13.0356 153.248 13.2763C152.775 13.5146 151.561 14.098 151.561 14.098L150.362 13.6745L149.76 13.9278L150.821 14.7995L150.829 16.1556L151.453 15.8935L151.866 14.748C151.866 14.748 153.136 14.2857 153.64 14.1115C154.146 13.9413 154.078 14.524 154.078 14.524L153.829 17.3035L154.657 16.9552L156.021 13.205C156.021 13.205 156.745 12.8725 157.253 12.5804C157.761 12.2883 157.935 11.8038 157.935 11.8038C157.935 11.8038 157.44 11.6019 156.869 11.7642C156.299 11.9249 155.554 12.2115 155.554 12.2115L151.695 10.6606L150.869 11.0074ZM145.895 5.67471L147.491 6.87725L147.927 6.8155L147.058 5.73646C147.058 5.73646 146.869 5.51321 147.124 5.46017C147.38 5.40633 148.027 5.28125 148.027 5.28125L148.515 5.64937L148.843 5.60346L148.471 5.04454L148.667 4.42467L148.35 4.46821L147.974 4.94004C147.974 4.94004 147.314 4.99862 147.055 5.01921C146.794 5.03821 146.906 4.773 146.906 4.773L147.406 3.5L146.968 3.56096L145.813 5.15142C145.813 5.15142 145.428 5.21792 145.149 5.29313C144.87 5.36754 144.723 5.57179 144.723 5.57179C144.723 5.57179 144.928 5.72854 145.216 5.723C145.508 5.71746 145.895 5.67471 145.895 5.67471ZM153.783 21.1265L152.75 20.6158L152.512 20.6942L153.124 21.212C153.124 21.212 153.255 21.3172 153.117 21.3735C152.98 21.4289 152.63 21.565 152.63 21.565L152.342 21.4431L152.17 21.5017L152.41 21.744L152.387 22.0978L152.566 22.0392L152.7 21.7519C152.7 21.7519 153.063 21.6497 153.208 21.6133C153.352 21.5761 153.319 21.736 153.319 21.736L153.183 22.5L153.421 22.4216L153.889 21.4115C153.889 21.4115 154.096 21.3347 154.244 21.2642C154.392 21.1937 154.451 21.0639 154.451 21.0639C154.451 21.0639 154.319 20.9958 154.157 21.0299C153.994 21.0623 153.783 21.1265 153.783 21.1265Z" fill="#666666"/>
</svg>
