<svg width="105" height="81" viewBox="0 0 105 81" fill="none" xmlns="http://www.w3.org/2000/svg">
<path d="M53.9396 14.1623C61.7968 9.46699 74.7535 20.7764 78.0457 23.8585C77.3816 21.9039 76.2311 20.1507 74.7026 18.7642C74.6668 18.736 74.6381 18.6999 74.6189 18.6585C74.5998 18.6172 74.5906 18.5719 74.5923 18.5264C74.5922 18.4826 74.603 18.4395 74.6237 18.401C74.6445 18.3624 74.6745 18.3297 74.7111 18.3057C75.4389 17.8134 76.2934 17.5421 77.1718 17.5245C76.7198 16.9673 76.139 16.5285 75.4797 16.246C74.8204 15.9635 74.1024 15.8457 73.3874 15.9028C73.3347 15.9106 73.2808 15.9027 73.2325 15.8801C73.1842 15.8574 73.1436 15.821 73.1159 15.7755C73.0891 15.729 73.0749 15.6763 73.0749 15.6227C73.0749 15.569 73.0891 15.5163 73.1159 15.4698C73.4627 14.9448 73.942 14.5206 74.5052 14.2403C75.0683 13.9601 75.6955 13.8335 76.3233 13.8736C75.2117 13.0245 72.6916 12.7189 71.6734 12.6849C71.6191 12.6844 71.5661 12.668 71.5209 12.6379C71.4757 12.6077 71.4403 12.5651 71.4189 12.5151C71.398 12.4664 71.391 12.413 71.3984 12.3606C71.4059 12.3082 71.4277 12.2588 71.4613 12.2179C72.4439 11.0743 73.8369 10.3637 75.339 10.2396C73.9305 8.54152 69.7558 8.03207 69.7134 8.02358C69.6538 8.019 69.5974 7.9949 69.5529 7.95499C69.5084 7.91508 69.4783 7.8616 69.4673 7.80284C69.4533 7.76996 69.446 7.73462 69.4457 7.69889C69.4453 7.66315 69.4521 7.62772 69.4655 7.59459C69.4789 7.56147 69.4987 7.53131 69.5237 7.50585C69.5488 7.48039 69.5786 7.46013 69.6115 7.44623C70.9358 6.60239 72.4372 6.07642 73.9983 5.90943C72.3013 3.80377 66.9048 2.5132 66.8454 2.5132C66.7878 2.49972 66.7358 2.46886 66.6964 2.42482C66.6569 2.38078 66.6319 2.32568 66.6248 2.26697C66.6181 2.20905 66.6292 2.15046 66.6564 2.09894C66.6837 2.04741 66.7259 2.00535 66.7775 1.97829C70.3922 0.0933849 74.8044 1.92735 75.008 1.97829C80.0991 4.52547 80.3282 12.9736 79.7937 18.8236C81.7961 11.717 86.149 0.58585 93.845 0C94.0995 0 100.098 -1.98383e-05 103.391 3.88017C103.424 3.9274 103.442 3.98374 103.442 4.0415C103.442 4.09925 103.424 4.1556 103.391 4.20282C103.361 4.25358 103.317 4.2944 103.264 4.32009C103.211 4.34579 103.152 4.35522 103.094 4.34717C103.017 4.34717 95.8474 3.18395 92.9116 4.96697C94.7026 5.8962 96.2425 7.24488 97.4002 8.89811C97.4349 8.94794 97.4535 9.00721 97.4535 9.06793C97.4535 9.12865 97.4349 9.1879 97.4002 9.23773C97.3657 9.28631 97.317 9.32303 97.2608 9.3428C97.2045 9.36256 97.1436 9.3644 97.0863 9.34811C97.0269 9.34811 91.7067 7.86227 89.263 9.30567C90.1234 9.723 90.8917 10.3083 91.5227 11.0272C92.1536 11.746 92.6345 12.5839 92.9371 13.4915C92.9546 13.5431 92.9567 13.5987 92.9431 13.6515C92.9296 13.7043 92.9009 13.752 92.8607 13.7887C92.8227 13.827 92.7741 13.8531 92.7213 13.8637C92.6684 13.8743 92.6135 13.8689 92.5637 13.8481C91.2994 13.3811 88.0072 12.4557 86.3102 13.084C87.0915 13.3115 87.796 13.7479 88.3477 14.3464C88.8994 14.9448 89.2775 15.6826 89.4412 16.4802C89.4494 16.5334 89.4427 16.5877 89.4217 16.6372C89.4007 16.6867 89.3663 16.7294 89.3224 16.7604C89.276 16.7872 89.2233 16.8013 89.1697 16.8013C89.1161 16.8013 89.0634 16.7872 89.0169 16.7604C88.1777 16.328 87.2427 16.1152 86.299 16.1419C85.3554 16.1687 84.4339 16.434 83.6204 16.9132C84.6799 17.3425 85.5869 18.0787 86.2253 19.0274C86.2461 19.0666 86.257 19.1103 86.257 19.1547C86.257 19.1991 86.2461 19.2429 86.2253 19.2821C86.2096 19.324 86.1847 19.3617 86.1524 19.3926C86.1201 19.4235 86.0812 19.4466 86.0387 19.4604C83.5412 20.357 81.3191 21.8871 79.59 23.901C83.7817 22.2793 98.0027 17.3972 102.992 23.901C103.111 24.0793 105.919 28.3161 104.689 32.468C104.672 32.5236 104.639 32.5729 104.593 32.6093C104.548 32.6456 104.492 32.6674 104.434 32.6717H104.392C104.341 32.6663 104.292 32.6478 104.251 32.6181C104.209 32.5883 104.176 32.5483 104.154 32.5019C104.154 32.4425 101.677 26.9746 99.1142 25.7095C99.2671 27.3842 99.0229 29.0714 98.4015 30.634C98.3818 30.6899 98.3449 30.738 98.2961 30.7716C98.2473 30.8051 98.1891 30.8224 98.1299 30.8208C98.069 30.8199 98.0099 30.7997 97.9611 30.7631C97.9123 30.7265 97.8764 30.6753 97.8584 30.617C97.8584 30.5746 96.4584 26.2614 94.371 25.1491C94.464 25.9434 94.3994 26.7482 94.181 27.5175C93.9626 28.2867 93.5947 29.0054 93.0983 29.6321C93.0642 29.6738 93.0189 29.7047 92.9678 29.7213C92.9166 29.7378 92.8618 29.7393 92.8098 29.7255C92.7575 29.7149 92.7095 29.6891 92.6718 29.6513C92.634 29.6136 92.6083 29.5656 92.5977 29.5132C92.3516 28.4434 91.5285 25.8113 90.3661 24.8434C90.5434 25.4951 90.5442 26.1824 90.3682 26.8345C90.1922 27.4865 89.8459 28.08 89.3648 28.5538C89.3252 28.5894 89.2767 28.6138 89.2245 28.6242C89.1722 28.6347 89.1181 28.6309 89.0679 28.6132C89.0172 28.5933 88.9729 28.5597 88.94 28.5163C88.9071 28.4729 88.8867 28.4212 88.8812 28.367C88.7918 27.5997 88.5172 26.8656 88.0812 26.228C87.6451 25.5905 87.0606 25.0687 86.3781 24.7076C86.5471 25.6347 86.4409 26.5911 86.0726 27.4585C86.0556 27.4993 86.029 27.5352 85.995 27.5633C85.961 27.5914 85.9207 27.6108 85.8775 27.6198C85.8346 27.6293 85.7902 27.6289 85.7476 27.6186C85.7049 27.6083 85.6652 27.5884 85.6314 27.5604C84.961 27.0342 84.2286 26.5923 83.4507 26.2444C83.7905 26.5581 84.0543 26.9452 84.2219 27.3763C84.3895 27.8074 84.4566 28.2711 84.418 28.7321C84.3489 29.5415 83.9616 30.2903 83.3411 30.814C82.7206 31.3378 81.9177 31.5937 81.1088 31.5255C80.4438 31.4671 79.8171 31.1894 79.327 30.7359C78.6057 32.6208 75.8481 41.6548 80.5149 59.6038C86.8108 61.4972 87.8121 63.484 88.686 65.2416C88.9695 65.8802 89.347 66.4726 89.8061 66.9991C90.2496 67.6266 90.512 68.3642 90.5644 69.131C90.6168 69.8978 90.4572 70.6643 90.103 71.3463C88.9406 73.7746 85.1138 76.4406 73.5232 75.4642C65.5472 74.785 60.6343 72.9171 58.9203 69.9114C58.5724 69.3357 58.3636 68.6867 58.3106 68.016C58.2576 67.3453 58.3618 66.6715 58.6149 66.0482C60.3119 61.9897 64.6562 58.7038 68.797 58.3048C69.4588 51.7585 71.4867 36.4161 76.2893 30.2859C76.0862 30.3071 75.8815 30.3071 75.6784 30.2859C74.8688 30.2146 74.1205 29.8252 73.5973 29.203C73.074 28.5808 72.8185 27.7764 72.8868 26.9661C72.9395 26.3571 73.1741 25.778 73.5599 25.3041C73.9458 24.8302 74.4651 24.4833 75.0505 24.3085C73.416 24.1664 71.7692 24.3189 70.1885 24.7585C70.1502 24.7773 70.1081 24.787 70.0655 24.787C70.0229 24.787 69.9808 24.7773 69.9425 24.7585C69.9048 24.7349 69.8735 24.7025 69.8513 24.664C69.8292 24.6255 69.8167 24.5822 69.8152 24.5378C69.7938 23.4818 70.0894 22.4437 70.6637 21.5576C69.8015 21.639 68.9731 21.9339 68.2532 22.4156C67.5333 22.8973 66.9445 23.5508 66.5399 24.317C66.5165 24.3648 66.4803 24.4051 66.4354 24.4335C66.3905 24.462 66.3385 24.4775 66.2854 24.4783C66.2322 24.4775 66.1803 24.462 66.1354 24.4335C66.0905 24.4051 66.0543 24.3648 66.0308 24.317C65.7229 23.6297 65.6076 22.8716 65.6973 22.1237C65.7869 21.3759 66.0782 20.6666 66.5399 20.0717C64.9447 20.5387 62.9762 22.9585 62.2974 23.9774C62.2682 24.0195 62.2287 24.0533 62.1826 24.0757C62.1365 24.098 62.0854 24.108 62.0344 24.1047C61.9805 24.0967 61.9301 24.0732 61.8895 24.037C61.8488 24.0008 61.8195 23.9535 61.8052 23.901C61.5538 23.0589 61.4709 22.1755 61.5612 21.3014C61.6515 20.4272 61.9132 19.5794 62.3313 18.8066C59.7264 19.0613 56.519 22.9755 56.4851 23.0519C56.447 23.0982 56.3959 23.1319 56.3383 23.1486C56.2808 23.1652 56.2195 23.1641 56.1627 23.1453C56.1046 23.1264 56.0546 23.0885 56.0207 23.0376C55.9868 22.9868 55.9711 22.926 55.976 22.8651C55.9689 21.0034 56.4052 19.1669 57.2487 17.5076C54.1008 17.7453 49.3237 22.4151 49.2728 22.4661C49.2311 22.5072 49.1776 22.5343 49.1197 22.5434C49.0619 22.5525 49.0026 22.5433 48.9503 22.517C48.8978 22.4927 48.8541 22.4527 48.8253 22.4025C48.7964 22.3524 48.7838 22.2945 48.7891 22.2368C49.154 17.5076 53.7274 14.3066 53.9396 14.1623ZM69.1194 61.3784C69.2304 62.2705 69.596 63.1117 70.1723 63.8013C70.7487 64.491 71.5114 64.9998 72.3692 65.2671C74.779 66.1161 78.1815 65.5557 79.7937 64.0444C80.122 63.7776 80.3675 63.4226 80.5013 63.021C80.635 62.6194 80.6515 62.188 80.5488 61.7774L80.3452 61.0302C78.2582 61.8064 76.0354 62.1501 73.8117 62.0406C72.0796 61.9708 70.4413 61.2348 69.2382 59.9859C69.1618 60.7586 69.1279 61.251 69.1194 61.3784ZM69.3146 59.1708C72.2249 63.085 78.8688 60.9539 80.2009 60.4699C79.8106 59.0265 79.4684 57.6397 79.1742 56.3095C77.6747 57.2359 75.914 57.6473 74.1595 57.4812C72.5694 57.3124 71.0349 56.7996 69.6624 55.9784C69.5182 57.218 69.3994 58.3048 69.3146 59.1708ZM69.7388 55.3585C74.8299 58.4152 78.3257 56.2076 79.0724 55.7067C78.7839 54.3736 78.5463 53.1001 78.3342 51.8859C76.9662 52.3279 75.525 52.4981 74.0917 52.3868C72.781 52.2829 71.5093 51.8915 70.3667 51.2406C70.0867 52.7095 69.9 54.1444 69.7388 55.3585ZM78.2239 51.3086C78.0118 50.035 77.8421 48.8123 77.7148 47.6661C76.5921 48.077 75.393 48.2364 74.202 48.1331C73.0892 48.0387 72.0098 47.7056 71.037 47.1566C70.8079 48.3368 70.6128 49.5 70.4346 50.6293C71.6116 51.2773 72.9108 51.6724 74.2492 51.7894C75.5875 51.9063 76.9355 51.7426 78.2069 51.3086H78.2239ZM77.6554 47.0633C77.5451 45.9765 77.4603 44.9406 77.4093 43.9642C76.4508 44.2827 75.4377 44.404 74.4311 44.3208C73.4993 44.2377 72.5978 43.9477 71.7922 43.4717C71.5631 44.4821 71.3425 45.5095 71.1473 46.5199C72.1204 47.0885 73.2079 47.4331 74.3307 47.5286C75.4535 47.624 76.5834 47.468 77.6384 47.0718L77.6554 47.0633ZM77.3754 43.3614C77.3754 42.4529 77.3245 41.5953 77.333 40.8142C76.7062 40.9283 76.0672 40.9597 75.4323 40.9076C74.4527 40.8414 73.5115 40.5001 72.7171 39.9227C72.4371 40.9076 72.174 41.918 71.9364 42.9368C72.7547 43.3982 73.6635 43.676 74.5998 43.7508C75.5361 43.8255 76.4774 43.6956 77.3584 43.3699L77.3754 43.3614ZM77.333 40.1944C77.333 39.184 77.4008 38.2585 77.4772 37.4095C77.021 37.5128 76.5516 37.5443 76.0857 37.5029C75.2449 37.427 74.438 37.1345 73.7438 36.6538C73.4468 37.5029 73.1583 38.3519 72.8953 39.2774C73.5266 39.7322 74.2462 40.0495 75.0076 40.209C75.769 40.3684 76.5554 40.3663 77.316 40.2029L77.333 40.1944ZM77.5281 36.7982C77.6017 36.0849 77.6865 35.4312 77.7827 34.8368C77.5146 34.8631 77.2447 34.8631 76.9766 34.8368C76.1932 34.7821 75.4461 34.4855 74.8384 33.9878C74.5244 34.6585 74.2359 35.3717 73.9474 36.1104C74.4486 36.4915 75.0306 36.7524 75.6484 36.8731C76.2662 36.9938 76.9035 36.9711 77.5112 36.8066L77.5281 36.7982ZM77.876 34.251C78.0033 33.5717 78.1306 32.9859 78.2579 32.4849C78.0829 32.502 77.9067 32.502 77.7318 32.4849C77.0914 32.4411 76.4885 32.1666 76.0348 31.7123C75.6806 32.2596 75.3576 32.8266 75.0674 33.4104C75.4404 33.7507 75.8845 34.0035 76.3674 34.1504C76.8504 34.2973 77.3599 34.3345 77.8591 34.2595L77.876 34.251ZM78.4276 31.8736C78.5888 31.3132 78.733 30.8972 78.8433 30.6085H78.4785C78.0284 30.5671 77.5934 30.425 77.2057 30.1925C76.9031 30.5181 76.6198 30.8611 76.3572 31.2198C76.6106 31.5018 76.9341 31.7115 77.2947 31.8279C77.6554 31.9442 78.0404 31.9629 78.4106 31.8821L78.4276 31.8736ZM77.316 29.5896C77.5945 29.7807 77.9083 29.9144 78.239 29.9829C78.5697 30.0514 78.9107 30.0534 79.2421 29.9887C79.7673 29.8808 80.2436 29.6059 80.5999 29.205C80.9561 28.8041 81.1734 28.2987 81.2191 27.7642C81.2483 27.4434 81.2139 27.12 81.1178 26.8125C81.0217 26.5051 80.8658 26.2197 80.6591 25.9727C80.452 25.7154 80.1948 25.5029 79.903 25.3482C79.6113 25.1935 79.2912 25.0997 78.9621 25.0727H78.5973C78.2825 25.0885 77.9739 25.1664 77.6893 25.3019C77.2955 25.4877 76.9573 25.7737 76.7087 26.1313C76.46 26.4889 76.3095 26.9056 76.2723 27.3396C76.2292 27.7733 76.3015 28.2106 76.4818 28.6072C76.6621 29.0039 76.9441 29.3457 77.299 29.5981L77.316 29.5896ZM74.7705 2.56415C73.682 2.14213 72.5393 1.8763 71.3764 1.77453C70.1612 1.64814 68.9331 1.79016 67.7788 2.19056C69.5521 2.68301 73.7183 4.02454 74.7705 6.07926C74.7976 6.12251 74.812 6.17252 74.812 6.22358C74.812 6.27464 74.7976 6.32468 74.7705 6.36793C74.744 6.41065 74.7062 6.44515 74.6612 6.46764C74.6163 6.49012 74.566 6.4997 74.5159 6.49529C73.159 6.52776 71.8306 6.89214 70.6467 7.55661C72.1571 7.8368 75.2541 8.60096 76.1535 10.35C76.1781 10.3926 76.1911 10.4409 76.1911 10.4901C76.1911 10.5393 76.1781 10.5876 76.1535 10.6302C76.1274 10.6738 76.0899 10.7095 76.0451 10.7334C76.0003 10.7574 75.9498 10.7687 75.899 10.766C74.5935 10.7721 73.3352 11.2552 72.3607 12.1245C73.6504 12.2349 76.5608 12.6509 77.3075 14.0689C77.3361 14.1147 77.3513 14.1677 77.3513 14.2217C77.3513 14.2758 77.3361 14.3287 77.3075 14.3745C77.2772 14.421 77.233 14.4567 77.1812 14.4766C77.1293 14.4964 77.0726 14.4993 77.019 14.4849C76.4896 14.3785 75.9424 14.4 75.4229 14.5477C74.9035 14.6953 74.4267 14.9649 74.0323 15.334C74.8489 15.3484 75.648 15.5731 76.3525 15.9866C77.057 16.4 77.6431 16.9882 78.0542 17.6944C78.0811 17.7392 78.0954 17.7906 78.0954 17.8429C78.0954 17.8953 78.0811 17.9467 78.0542 17.9915C78.025 18.0356 77.9842 18.0708 77.9363 18.0933C77.8884 18.1157 77.8353 18.1246 77.7827 18.1189C76.9808 18.0635 76.1787 18.2216 75.4578 18.5774C76.899 19.9721 77.9944 21.6847 78.6567 23.5783C79.2591 19.5028 81.1428 5.79057 74.7026 2.57264L74.7705 2.56415ZM85.6059 19.1208C84.9197 18.3057 84.0209 17.6973 83.0095 17.3632C82.9586 17.3487 82.9126 17.3204 82.8767 17.2814C82.8408 17.2425 82.8163 17.1944 82.8059 17.1425C82.7976 17.0902 82.8035 17.0366 82.8229 16.9873C82.8423 16.9381 82.8745 16.8949 82.9162 16.8623C83.756 16.2323 84.7449 15.8314 85.7861 15.6989C86.8274 15.5664 87.8851 15.707 88.8557 16.1066C88.1684 13.984 85.7502 13.5595 85.6399 13.5085C85.5856 13.5016 85.5347 13.4784 85.4939 13.442C85.453 13.4057 85.424 13.3578 85.4108 13.3047C85.3983 13.2514 85.4004 13.1956 85.4168 13.1433C85.4332 13.0911 85.4634 13.0442 85.5041 13.0075C87.0824 11.683 90.8413 12.7104 92.2922 13.1774C91.5819 11.6024 90.2983 10.3575 88.703 9.69623C88.6548 9.67989 88.6119 9.6507 88.579 9.61181C88.5461 9.57291 88.5244 9.52579 88.5163 9.47549C88.5077 9.426 88.5117 9.3751 88.528 9.32759C88.5443 9.28007 88.5724 9.23748 88.6097 9.20378C90.5443 7.54812 94.7529 8.25284 96.5348 8.6519C95.4382 7.2191 93.9959 6.08845 92.3431 5.36602C92.2954 5.34891 92.2529 5.31948 92.2202 5.28073C92.1874 5.24197 92.1654 5.19526 92.1564 5.14529C92.146 5.09579 92.1492 5.04439 92.1657 4.99656C92.1821 4.94872 92.2112 4.90622 92.2498 4.87358C94.5492 2.93773 100.311 3.45564 102.432 3.71885C99.2245 0.6113 93.9468 0.628294 93.8959 0.628294C84.6302 1.3415 80.2434 18.9594 79.2421 23.6547C80.9513 21.6518 83.1245 20.0981 85.572 19.1293L85.6059 19.1208ZM85.7332 26.9746C85.9585 26.1405 85.9585 25.2615 85.7332 24.4274C85.7175 24.377 85.7163 24.3231 85.7298 24.272C85.7433 24.2209 85.7709 24.1747 85.8096 24.1387C85.8465 24.1015 85.8931 24.0754 85.9441 24.0634C85.9951 24.0514 86.0485 24.0539 86.0981 24.0708C86.9205 24.3641 87.6537 24.8641 88.2273 25.5228C88.8009 26.1815 89.1955 26.9767 89.3733 27.8321C89.6875 27.3374 89.877 26.7738 89.9258 26.1897C89.9746 25.6056 89.8811 25.0184 89.6533 24.4783C89.6245 24.4341 89.6091 24.3825 89.6091 24.3297C89.6091 24.277 89.6245 24.2253 89.6533 24.1811C89.6897 24.1403 89.7369 24.1106 89.7895 24.0956C89.8421 24.0806 89.8979 24.0808 89.9503 24.0962C91.5964 24.5802 92.6146 27.5944 92.9795 28.8934C93.7145 27.6894 93.9747 26.2545 93.7092 24.8689C93.6987 24.8201 93.701 24.7695 93.7158 24.7219C93.7307 24.6742 93.7577 24.6313 93.7941 24.5972C93.8291 24.5599 93.8742 24.5335 93.9239 24.5215C93.9737 24.5094 94.0258 24.5121 94.0741 24.5293C96.0935 25.1151 97.5275 28.2651 98.1045 29.768C98.5714 28.3745 98.6908 26.888 98.4524 25.4378C98.4383 25.3885 98.438 25.3364 98.4514 25.287C98.4649 25.2376 98.4916 25.1928 98.5287 25.1576C98.5649 25.1219 98.61 25.0968 98.6593 25.0848C98.7087 25.0728 98.7603 25.0745 98.8088 25.0896C101.193 25.8029 103.45 29.9293 104.307 31.6529C104.927 28.0104 102.534 24.3934 102.517 24.3679C101.074 22.5 98.7579 21.6595 96.1105 21.4302C90.1285 20.9208 82.5343 23.5698 79.7258 24.6311C81.8865 24.9211 83.9464 25.7247 85.7332 26.9746ZM80.8119 25.4038L80.9561 25.5396H81.2107L80.8119 25.4038ZM83.8919 28.8C83.9198 28.4738 83.8831 28.1452 83.7838 27.8332C83.6846 27.5212 83.5247 27.2319 83.3134 26.9818C83.1022 26.7318 82.8436 26.5259 82.5527 26.376C82.2617 26.2262 81.9441 26.1353 81.6179 26.1085H81.3634V26.151C81.3634 26.1934 81.4058 26.2444 81.4313 26.2868C81.4893 26.4025 81.5403 26.5216 81.584 26.6434L81.6349 26.8217C81.6693 26.9414 81.6948 27.0634 81.7113 27.1868V27.3481C81.7283 27.5317 81.7283 27.7165 81.7113 27.9C81.6983 28.0547 81.6727 28.208 81.6349 28.3585C81.6349 28.4095 81.6349 28.4604 81.5925 28.5113L81.4907 28.8L81.4143 28.9613C81.3742 29.0461 81.3288 29.1284 81.2785 29.2076L81.1767 29.3689C81.1278 29.4432 81.0739 29.5141 81.0155 29.5812L80.8882 29.7255C80.8275 29.7948 80.7623 29.86 80.6931 29.9208L80.5488 30.0396C80.4761 30.101 80.3996 30.1577 80.3197 30.2095L80.1755 30.3029C80.0532 30.3724 79.9255 30.432 79.7937 30.4812C80.1858 30.8145 80.6725 31.0164 81.1852 31.0585C81.5177 31.0899 81.8531 31.0541 82.1715 30.9534C82.49 30.8526 82.7849 30.6889 83.0389 30.4719C83.2929 30.255 83.5009 29.9892 83.6503 29.6903C83.7997 29.3914 83.8877 29.0656 83.9089 28.7321L83.8919 28.8ZM59.1579 66.4048C58.9412 66.9553 58.8553 67.5485 58.9068 68.1379C58.9584 68.7272 59.146 69.2966 59.4549 69.801C60.5664 71.7369 63.9265 74.2246 73.5995 75.0567C85.4787 76.0671 88.7284 73.1124 89.6194 71.2529C89.918 70.6736 90.0565 70.0251 90.0207 69.3742C89.9849 68.7234 89.7761 68.094 89.4157 67.551C88.9172 66.9838 88.5054 66.3457 88.1939 65.6576C87.3454 63.9595 86.4545 62.2105 80.7185 60.419C80.8288 60.852 80.9476 61.268 81.0664 61.7265C81.2064 62.2371 81.1943 62.7775 81.0315 63.2814C80.8687 63.7852 80.5623 64.2304 80.15 64.5623C79.3019 65.2389 78.3287 65.7417 77.2863 66.0418C76.2439 66.3419 75.1525 66.4335 74.0747 66.3114C73.4156 66.2552 72.7659 66.1184 72.1401 65.9039C71.1789 65.6012 70.3252 65.0279 69.6811 64.2524C69.0371 63.4769 68.63 62.5322 68.5085 61.5312V61.4718C68.5085 61.2935 68.5849 60.4104 68.7206 59.0435C66.6525 59.3791 64.6992 60.2203 63.034 61.4926C61.3688 62.7649 60.0432 64.4289 59.1749 66.3369L59.1579 66.4048ZM73.4638 27.1783C73.4358 27.5039 73.4723 27.8318 73.571 28.1433C73.6698 28.4548 73.8289 28.7438 74.0393 28.9937C74.2497 29.2437 74.5072 29.4497 74.7972 29.6C75.0872 29.7504 75.4039 29.842 75.7293 29.8698C76.0139 29.8974 76.3012 29.8744 76.5778 29.8019C76.5269 29.7595 76.4929 29.7085 76.442 29.6576L76.3742 29.5812C76.2978 29.4878 76.2214 29.3859 76.1535 29.284C76.0941 29.1906 76.0432 29.0887 75.9923 28.9953L75.9414 28.8849C75.9414 28.8085 75.882 28.7321 75.8566 28.6472C75.8311 28.5623 75.8566 28.5623 75.8141 28.5198C75.7894 28.4419 75.7695 28.3625 75.7547 28.2821V28.1548V27.9C75.7508 27.8605 75.7508 27.8207 75.7547 27.7812C75.7463 27.654 75.7463 27.5263 75.7547 27.3991C75.7547 27.2717 75.7547 27.1529 75.8141 27.0255C75.8735 26.8981 75.8141 26.9491 75.8141 26.9066C75.8141 26.8642 75.8566 26.7453 75.882 26.6689L75.9329 26.5331C75.9605 26.4608 75.9916 26.3899 76.0263 26.3208C76.0455 26.2766 76.0683 26.234 76.0942 26.1934C76.0942 26.1255 76.1705 26.0576 76.2129 25.9896L76.2893 25.8793C76.3414 25.8 76.401 25.7261 76.4675 25.6585L76.5184 25.5906C76.5991 25.5043 76.684 25.4221 76.773 25.3444L76.8748 25.2679L77.019 25.1491C76.766 25.0383 76.4966 24.9695 76.2214 24.9453C75.5719 24.8733 74.9202 25.0602 74.4073 25.4654C73.8944 25.8705 73.5615 26.4615 73.4807 27.1104L73.4638 27.1783ZM57.7324 16.9896C57.7824 16.9942 57.8304 17.0114 57.872 17.0397C57.9135 17.0679 57.9472 17.1062 57.97 17.151C57.9945 17.1951 58.0074 17.2448 58.0074 17.2953C58.0074 17.3458 57.9945 17.3955 57.97 17.4396C57.1212 18.8555 56.6372 20.4601 56.5615 22.1094C57.7239 20.8359 60.4901 18.1189 62.815 18.3227C62.8642 18.3262 62.9116 18.343 62.9519 18.3715C62.9923 18.3999 63.0242 18.4388 63.0441 18.484C63.0686 18.5281 63.0814 18.5778 63.0814 18.6283C63.0814 18.6788 63.0686 18.7285 63.0441 18.7727C62.2111 20.1146 61.9085 21.7193 62.1956 23.2727C63.0441 22.118 65.352 19.3755 67.2442 19.5453C67.2993 19.5477 67.3524 19.5669 67.3964 19.6003C67.4403 19.6337 67.4731 19.6796 67.4903 19.7321C67.5112 19.7826 67.5159 19.8383 67.5037 19.8915C67.4915 19.9447 67.4631 19.9929 67.4224 20.0293C66.9622 20.5002 66.6254 21.0775 66.4418 21.7099C66.2583 22.3424 66.2337 23.0105 66.3702 23.6547C66.8972 22.8494 67.6215 22.1925 68.474 21.7466C69.3266 21.3008 70.2791 21.0808 71.2407 21.1076C71.2943 21.111 71.346 21.1285 71.3907 21.1583C71.4354 21.1881 71.4715 21.2292 71.4952 21.2774C71.5161 21.326 71.5231 21.3795 71.5157 21.4319C71.5082 21.4843 71.4864 21.5337 71.4528 21.5746C70.8716 22.3573 70.5191 23.2861 70.4346 24.2576C72.0146 23.8635 73.6494 23.7372 75.2711 23.884C76.0569 23.9565 76.8366 24.0842 77.6045 24.2661C74.2105 21.167 61.6101 10.316 54.279 14.7057C54.2365 14.7057 50.257 17.516 49.4679 21.5576C50.9443 20.1142 54.9917 16.7094 57.7324 16.9472V16.9896Z" fill="#999999"/>
<path d="M5.15173 19.4909C13.0089 14.7956 25.9657 26.105 29.2579 29.1871C28.5938 27.2325 27.4433 25.4793 25.9148 24.0928C25.8789 24.0647 25.8503 24.0285 25.8311 23.9872C25.8119 23.9458 25.8028 23.9006 25.8044 23.855C25.8043 23.8113 25.8151 23.7681 25.8359 23.7296C25.8566 23.6911 25.8867 23.6583 25.9232 23.6343C26.6511 23.142 27.5056 22.8707 28.3839 22.8532C27.9319 22.2959 27.3512 21.8571 26.6919 21.5746C26.0326 21.2921 25.3145 21.1743 24.5996 21.2314C24.5468 21.2392 24.4929 21.2313 24.4446 21.2087C24.3964 21.186 24.3558 21.1497 24.328 21.1041C24.3012 21.0576 24.2871 21.0049 24.2871 20.9513C24.2871 20.8976 24.3012 20.8449 24.328 20.7984C24.6749 20.2734 25.1541 19.8492 25.7173 19.569C26.2805 19.2887 26.9077 19.1622 27.5354 19.2022C26.4239 18.3532 23.9038 18.0475 22.8856 18.0135C22.8313 18.013 22.7783 17.9966 22.7331 17.9665C22.6879 17.9363 22.6524 17.8937 22.631 17.8437C22.6102 17.7951 22.6031 17.7416 22.6106 17.6892C22.6181 17.6368 22.6398 17.5874 22.6734 17.5465C23.6561 16.4029 25.049 15.6923 26.5511 15.5682C25.1426 13.8701 20.9679 13.3607 20.9255 13.3522C20.8659 13.3476 20.8095 13.3235 20.765 13.2836C20.7206 13.2437 20.6905 13.1902 20.6794 13.1315C20.6655 13.0986 20.6581 13.0632 20.6578 13.0275C20.6575 12.9918 20.6642 12.9563 20.6776 12.9232C20.691 12.8901 20.7108 12.8599 20.7359 12.8345C20.761 12.809 20.7908 12.7887 20.8237 12.7748C22.148 11.931 23.6494 11.405 25.2105 11.238C23.5135 9.13238 18.1169 7.84182 18.0575 7.84182C18 7.82833 17.948 7.79747 17.9085 7.75343C17.8691 7.7094 17.8441 7.6543 17.837 7.59558C17.8303 7.53766 17.8413 7.47908 17.8686 7.42755C17.8958 7.37602 17.9381 7.33396 17.9897 7.30691C21.6043 5.422 26.0166 7.25596 26.2202 7.30691C31.3113 9.85408 31.5404 18.3022 31.0058 24.1522C33.0083 17.0456 37.3611 5.91446 45.0571 5.32861C45.3117 5.32861 51.3106 5.32859 54.6029 9.20879C54.6361 9.25601 54.6539 9.31236 54.6539 9.37011C54.6539 9.42787 54.6361 9.48421 54.6029 9.53143C54.5732 9.5822 54.5292 9.62301 54.4763 9.64871C54.4234 9.6744 54.3641 9.68383 54.3059 9.67578C54.2295 9.67578 47.0596 8.51256 44.1238 10.2956C45.9147 11.2248 47.4547 12.5735 48.6124 14.2267C48.6471 14.2766 48.6657 14.3358 48.6657 14.3965C48.6657 14.4573 48.6471 14.5165 48.6124 14.5663C48.5779 14.6149 48.5291 14.6516 48.4729 14.6714C48.4167 14.6912 48.3558 14.693 48.2984 14.6767C48.239 14.6767 42.9189 13.1909 40.4752 14.6343C41.3356 15.0516 42.1038 15.6369 42.7348 16.3558C43.3658 17.0747 43.8467 17.9125 44.1492 18.8201C44.1667 18.8717 44.1689 18.9273 44.1553 18.9801C44.1417 19.0329 44.1131 19.0806 44.0729 19.1173C44.0349 19.1556 43.9863 19.1817 43.9334 19.1923C43.8805 19.2029 43.8257 19.1975 43.7759 19.1767C42.5116 18.7098 39.2194 17.7843 37.5224 18.4126C38.3037 18.6401 39.0081 19.0765 39.5599 19.675C40.1116 20.2735 40.4897 21.0112 40.6534 21.8088C40.6616 21.862 40.6549 21.9163 40.6339 21.9658C40.6129 22.0154 40.5785 22.058 40.5346 22.089C40.4881 22.1158 40.4355 22.1299 40.3818 22.1299C40.3282 22.1299 40.2755 22.1158 40.2291 22.089C39.3898 21.6566 38.4548 21.4438 37.5112 21.4706C36.5676 21.4973 35.6461 21.7626 34.8326 22.2418C35.892 22.6711 36.7991 23.4073 37.4375 24.356C37.4583 24.3952 37.4692 24.4389 37.4692 24.4834C37.4692 24.5278 37.4583 24.5715 37.4375 24.6107C37.4218 24.6526 37.3969 24.6903 37.3645 24.7212C37.3322 24.7521 37.2933 24.7752 37.2508 24.789C34.7533 25.6856 32.5313 27.2157 30.8022 29.2296C34.9938 27.6079 49.2149 22.7258 54.2041 29.2296C54.3229 29.4079 57.1314 33.6447 55.9011 37.7966C55.8842 37.8523 55.8508 37.9015 55.8053 37.9379C55.7599 37.9743 55.7045 37.996 55.6465 38.0003H55.6041C55.5532 37.9949 55.5046 37.9764 55.463 37.9467C55.4214 37.9169 55.3882 37.8769 55.3665 37.8305C55.3665 37.7711 52.8889 32.3032 50.3264 31.0381C50.4792 32.7128 50.235 34.4 49.6136 35.9626C49.5939 36.0185 49.557 36.0666 49.5082 36.1002C49.4594 36.1338 49.4013 36.151 49.3421 36.1494C49.2811 36.1485 49.222 36.1283 49.1732 36.0917C49.1245 36.0551 49.0885 36.004 49.0706 35.9456C49.0706 35.9032 47.6705 31.59 45.5832 30.4777C45.6762 31.272 45.6116 32.0768 45.3932 32.8461C45.1748 33.6154 44.8068 34.334 44.3104 34.9607C44.2764 35.0024 44.2311 35.0333 44.1799 35.0499C44.1288 35.0664 44.0739 35.0679 44.0219 35.0541C43.9697 35.0435 43.9217 35.0177 43.8839 34.9799C43.8462 34.9422 43.8204 34.8942 43.8098 34.8418C43.5638 33.772 42.7407 31.14 41.5782 30.172C41.7556 30.8237 41.7563 31.511 41.5804 32.1631C41.4044 32.8152 41.0581 33.4086 40.577 33.8824C40.5374 33.9181 40.4889 33.9424 40.4367 33.9529C40.3844 33.9633 40.3303 33.9595 40.28 33.9418C40.2293 33.9219 40.1851 33.8884 40.1522 33.8449C40.1192 33.8015 40.0989 33.7499 40.0933 33.6956C40.004 32.9283 39.7294 32.1942 39.2933 31.5566C38.8573 30.9191 38.2728 30.3973 37.5903 30.0362C37.7592 30.9633 37.653 31.9197 37.2848 32.7871C37.2678 32.8279 37.2411 32.8638 37.2071 32.8919C37.1731 32.9201 37.1328 32.9395 37.0896 32.9485C37.0468 32.9579 37.0024 32.9575 36.9597 32.9472C36.9171 32.9369 36.8774 32.917 36.8436 32.889C36.1731 32.3628 35.4408 31.9209 34.6629 31.573C35.0027 31.8867 35.2664 32.2738 35.434 32.7049C35.6017 33.136 35.6688 33.5997 35.6302 34.0607C35.5611 34.8701 35.1738 35.6189 34.5533 36.1427C33.9328 36.6664 33.1299 36.9223 32.321 36.8541C31.656 36.7957 31.0293 36.518 30.5391 36.0645C29.8179 37.9494 27.0602 46.9834 31.727 64.9324C38.023 66.8258 39.0242 68.8127 39.8982 70.5702C40.1816 71.2088 40.5592 71.8012 41.0182 72.3278C41.4618 72.9552 41.7242 73.6928 41.7766 74.4596C41.8289 75.2264 41.6693 75.9929 41.3152 76.6749C40.1527 79.1032 36.326 81.7693 24.7353 80.7928C16.7593 80.1136 11.8465 78.2457 10.1325 75.24C9.78456 74.6643 9.57579 74.0153 9.52276 73.3446C9.46973 72.6739 9.57391 72.0001 9.82702 71.3768C11.524 67.3183 15.8684 64.0325 20.0091 63.6334C20.671 57.0872 22.6989 41.7447 27.5015 35.6145C27.2984 35.6357 27.0936 35.6357 26.8905 35.6145C26.081 35.5432 25.3327 35.1538 24.8094 34.5316C24.2862 33.9094 24.0307 33.105 24.0989 32.2947C24.1517 31.6857 24.3862 31.1066 24.7721 30.6327C25.1579 30.1588 25.6773 29.8119 26.2626 29.6371C24.6281 29.495 22.9814 29.6475 21.4007 30.0871C21.3624 30.1059 21.3203 30.1156 21.2777 30.1156C21.235 30.1156 21.1929 30.1059 21.1546 30.0871C21.117 30.0636 21.0857 30.0311 21.0635 29.9926C21.0413 29.9541 21.0289 29.9108 21.0273 29.8664C21.006 28.8104 21.3016 27.7723 21.8758 26.8862C21.0136 26.9676 20.1852 27.2625 19.4653 27.7442C18.7454 28.2259 18.1566 28.8794 17.7521 29.6456C17.7286 29.6934 17.6925 29.7337 17.6475 29.7622C17.6026 29.7906 17.5507 29.8061 17.4975 29.8069C17.4444 29.8061 17.3925 29.7906 17.3475 29.7622C17.3026 29.7337 17.2664 29.6934 17.243 29.6456C16.935 28.9583 16.8197 28.2002 16.9094 27.4524C16.9991 26.7045 17.2904 25.9952 17.7521 25.4003C16.1569 25.8673 14.1884 28.2871 13.5095 29.306C13.4804 29.3481 13.4408 29.382 13.3948 29.4043C13.3487 29.4266 13.2976 29.4366 13.2465 29.4333C13.1927 29.4253 13.1423 29.4018 13.1016 29.3656C13.0609 29.3294 13.0317 29.2822 13.0174 29.2296C12.766 28.3875 12.6831 27.5041 12.7733 26.63C12.8636 25.7558 13.1253 24.908 13.5435 24.1352C10.9386 24.39 7.73119 28.3041 7.69725 28.3805C7.65919 28.4268 7.60803 28.4605 7.55048 28.4772C7.49294 28.4938 7.4317 28.4927 7.37481 28.4739C7.31675 28.455 7.26673 28.4171 7.23286 28.3662C7.19899 28.3154 7.18324 28.2546 7.18814 28.1937C7.18102 26.3321 7.61732 24.4955 8.46091 22.8362C5.31293 23.0739 0.535831 27.7437 0.484921 27.7947C0.443249 27.8358 0.389721 27.8629 0.331886 27.872C0.274048 27.8812 0.214802 27.8719 0.162483 27.8456C0.109974 27.8213 0.0662804 27.7813 0.0374146 27.7311C0.00854492 27.681 -0.00408554 27.6231 0.00126266 27.5654C0.366123 22.8362 4.9396 19.6352 5.15173 19.4909ZM20.3316 66.707C20.4426 67.5991 20.8082 68.4403 21.3845 69.1299C21.9608 69.8196 22.7235 70.3285 23.5814 70.5957C25.9911 71.4447 29.3936 70.8844 31.0058 69.373C31.3342 69.1062 31.5797 68.7512 31.7134 68.3496C31.8472 67.9481 31.8637 67.5166 31.761 67.106L31.5573 66.3589C29.4704 67.135 27.2476 67.4787 25.0238 67.3692C23.2918 67.2994 21.6534 66.5634 20.4504 65.3145C20.374 66.0872 20.3401 66.5796 20.3316 66.707ZM20.5267 64.4995C23.4371 68.4136 30.0809 66.2825 31.4131 65.7985C31.0228 64.3551 30.6805 62.9683 30.3864 61.6381C28.8869 62.5645 27.1262 62.9759 25.3717 62.8098C23.7815 62.641 22.2471 62.1282 20.8746 61.307C20.7304 62.5466 20.6116 63.6334 20.5267 64.4995ZM20.951 60.6872C26.042 63.7438 29.5379 61.5362 30.2846 61.0353C29.9961 59.7023 29.7585 58.4287 29.5464 57.2145C28.1783 57.6565 26.7371 57.8267 25.3038 57.7155C23.9932 57.6115 22.7215 57.2201 21.5789 56.5692C21.2989 58.0381 21.1122 59.473 20.951 60.6872ZM29.4361 56.6372C29.2239 55.3636 29.0542 54.1409 28.927 52.9947C27.8042 53.4056 26.6051 53.565 25.4141 53.4617C24.3014 53.3673 23.2219 53.0342 22.2492 52.4853C22.0201 53.6655 21.8249 54.8287 21.6468 55.9579C22.8238 56.6059 24.123 57.001 25.4613 57.118C26.7996 57.235 28.1476 57.0712 29.4191 56.6372H29.4361ZM28.8676 52.3919C28.7573 51.3051 28.6724 50.2692 28.6215 49.2928C27.6629 49.6114 26.6499 49.7326 25.6432 49.6494C24.7114 49.5664 23.8099 49.2763 23.0044 48.8004C22.7753 49.8107 22.5547 50.8381 22.3595 51.8485C23.3326 52.4171 24.42 52.7617 25.5428 52.8572C26.6656 52.9526 27.7956 52.7966 28.8506 52.4004L28.8676 52.3919ZM28.5876 48.69C28.5876 47.7815 28.5367 46.9239 28.5451 46.1428C27.9184 46.2569 27.2794 46.2883 26.6445 46.2362C25.6648 46.1701 24.7237 45.8287 23.9292 45.2513C23.6492 46.2362 23.3862 47.2466 23.1486 48.2654C23.9669 48.7269 24.8757 49.0046 25.812 49.0794C26.7482 49.1541 27.6895 49.0242 28.5706 48.6985L28.5876 48.69ZM28.5451 45.523C28.5451 44.5126 28.613 43.5872 28.6894 42.7381C28.2332 42.8414 27.7637 42.8729 27.2978 42.8315C26.457 42.7556 25.6502 42.4631 24.9559 41.9824C24.659 42.8315 24.3705 43.6805 24.1074 44.606C24.7388 45.0608 25.4583 45.3782 26.2198 45.5376C26.9812 45.697 27.7676 45.6949 28.5282 45.5315L28.5451 45.523ZM28.7403 42.1268C28.8138 41.4136 28.8987 40.7598 28.9948 40.1655C28.7268 40.1917 28.4568 40.1917 28.1888 40.1655C27.4054 40.1108 26.6582 39.8141 26.0505 39.3164C25.7366 39.9871 25.4481 40.7004 25.1596 41.439C25.6608 41.8201 26.2428 42.081 26.8606 42.2017C27.4784 42.3224 28.1157 42.2997 28.7233 42.1352L28.7403 42.1268ZM29.0882 39.5796C29.2154 38.9004 29.3427 38.3145 29.47 37.8135C29.2951 37.8306 29.1189 37.8306 28.9439 37.8135C28.3035 37.7697 27.7007 37.4952 27.2469 37.0409C26.8928 37.5882 26.5698 38.1552 26.2796 38.739C26.6526 39.0793 27.0967 39.3322 27.5796 39.479C28.0625 39.6259 28.5721 39.6632 29.0712 39.5881L29.0882 39.5796ZM29.6397 37.2022C29.8009 36.6418 29.9452 36.2258 30.0555 35.9371H29.6906C29.2406 35.8958 28.8056 35.7536 28.4179 35.5211C28.1153 35.8467 27.832 36.1898 27.5694 36.5485C27.8228 36.8304 28.1462 37.0401 28.5069 37.1565C28.8675 37.2728 29.2525 37.2915 29.6227 37.2107L29.6397 37.2022ZM28.5282 34.9183C28.8067 35.1093 29.1205 35.243 29.4511 35.3115C29.7818 35.38 30.1228 35.382 30.4543 35.3173C30.9795 35.2094 31.4557 34.9345 31.812 34.5336C32.1683 34.1327 32.3855 33.6273 32.4313 33.0928C32.4605 32.772 32.426 32.4486 32.3299 32.1411C32.2338 31.8337 32.078 31.5483 31.8713 31.3013C31.6642 31.044 31.4069 30.8315 31.1152 30.6768C30.8235 30.5221 30.5033 30.4284 30.1743 30.4013H29.8094C29.4946 30.4171 29.1861 30.495 28.9015 30.6305C28.5077 30.8163 28.1695 31.1023 27.9208 31.4599C27.6721 31.8175 27.5217 32.2342 27.4845 32.6683C27.4414 33.1019 27.5137 33.5392 27.694 33.9358C27.8743 34.3325 28.1562 34.6743 28.5112 34.9268L28.5282 34.9183ZM25.9826 7.89276C24.8941 7.47075 23.7515 7.20491 22.5886 7.10314C21.3734 6.97676 20.1453 7.11877 18.9909 7.51917C20.7643 8.01162 24.9305 9.35315 25.9826 11.4079C26.0097 11.4511 26.0241 11.5011 26.0241 11.5522C26.0241 11.6033 26.0097 11.6533 25.9826 11.6965C25.9561 11.7393 25.9183 11.7738 25.8734 11.7963C25.8284 11.8187 25.7781 11.8283 25.7281 11.8239C24.3711 11.8564 23.0427 12.2208 21.8589 12.8852C23.3692 13.1654 26.4663 13.9296 27.3657 15.6786C27.3903 15.7212 27.4032 15.7695 27.4032 15.8187C27.4032 15.8679 27.3903 15.9162 27.3657 15.9588C27.3396 16.0024 27.3021 16.0381 27.2573 16.0621C27.2124 16.086 27.1619 16.0973 27.1112 16.0947C25.8057 16.1007 24.5473 16.5838 23.5729 17.4532C24.8626 17.5635 27.773 17.9796 28.5197 19.3975C28.5483 19.4433 28.5634 19.4963 28.5634 19.5503C28.5634 19.6044 28.5483 19.6573 28.5197 19.7032C28.4894 19.7496 28.4451 19.7853 28.3933 19.8052C28.3415 19.825 28.2848 19.8279 28.2312 19.8135C27.7018 19.7071 27.1546 19.7286 26.6351 19.8763C26.1156 20.0239 25.6389 20.2935 25.2444 20.6626C26.061 20.677 26.8601 20.9017 27.5646 21.3152C28.2691 21.7286 28.8552 22.3168 29.2664 23.023C29.2933 23.0679 29.3075 23.1192 29.3075 23.1715C29.3075 23.2239 29.2933 23.2753 29.2664 23.3201C29.2371 23.3642 29.1963 23.3994 29.1485 23.4219C29.1006 23.4444 29.0474 23.4532 28.9948 23.4475C28.193 23.3921 27.3908 23.5503 26.6699 23.906C28.1112 25.3007 29.2066 27.0133 29.8688 28.9069C30.4713 24.8315 32.3549 11.1192 25.9148 7.90126L25.9826 7.89276ZM36.8181 24.4494C36.1319 23.6343 35.233 23.0259 34.2217 22.6918C34.1707 22.6773 34.1248 22.649 34.0889 22.6101C34.053 22.5711 34.0284 22.523 34.018 22.4711C34.0098 22.4188 34.0157 22.3652 34.0351 22.316C34.0545 22.2667 34.0867 22.2235 34.1283 22.1909C34.9681 21.5609 35.9571 21.16 36.9983 21.0275C38.0395 20.8951 39.0973 21.0356 40.0679 21.4352C39.3806 19.3126 36.9624 18.8881 36.8521 18.8371C36.7978 18.8302 36.7469 18.807 36.706 18.7707C36.6651 18.7343 36.6362 18.6864 36.6229 18.6333C36.6104 18.58 36.6125 18.5242 36.6289 18.472C36.6454 18.4197 36.6755 18.3728 36.7163 18.3362C38.2945 17.0116 42.0534 18.039 43.5044 18.506C42.794 16.931 41.5105 15.6862 39.9152 15.0248C39.8669 15.0085 39.824 14.9793 39.7912 14.9404C39.7583 14.9015 39.7366 14.8544 39.7285 14.8041C39.7198 14.7546 39.7238 14.7037 39.7402 14.6562C39.7565 14.6087 39.7846 14.5661 39.8218 14.5324C41.7564 12.8767 45.965 13.5815 47.7469 13.9805C46.6503 12.5477 45.208 11.4171 43.5553 10.6946C43.5075 10.6775 43.4651 10.6481 43.4323 10.6093C43.3996 10.5706 43.3776 10.5239 43.3686 10.4739C43.3582 10.4244 43.3614 10.373 43.3778 10.3252C43.3943 10.2773 43.4233 10.2348 43.4619 10.2022C45.7614 8.26634 51.5228 8.78426 53.644 9.04746C50.4367 5.93991 45.1589 5.95691 45.108 5.95691C35.8423 6.67012 31.4555 24.2881 30.4543 28.9833C32.1634 26.9804 34.3367 25.4267 36.7842 24.4579L36.8181 24.4494ZM36.9454 32.3032C37.1706 31.4691 37.1706 30.5901 36.9454 29.756C36.9296 29.7056 36.9284 29.6517 36.9419 29.6006C36.9554 29.5496 36.9831 29.5033 37.0217 29.4673C37.0587 29.4301 37.1053 29.404 37.1563 29.392C37.2073 29.38 37.2606 29.3826 37.3102 29.3994C38.1327 29.6927 38.8659 30.1927 39.4395 30.8514C40.0131 31.5101 40.4077 32.3054 40.5855 33.1607C40.8996 32.666 41.0892 32.1024 41.1379 31.5183C41.1867 30.9342 41.0932 30.347 40.8655 29.8069C40.8366 29.7628 40.8213 29.7111 40.8213 29.6584C40.8213 29.6056 40.8366 29.5539 40.8655 29.5098C40.9019 29.4689 40.9491 29.4392 41.0017 29.4242C41.0542 29.4092 41.11 29.4094 41.1625 29.4249C42.8086 29.9088 43.8268 32.923 44.1917 34.222C44.9267 33.018 45.1868 31.5831 44.9214 30.1975C44.9108 30.1487 44.9131 30.0981 44.928 30.0505C44.9429 30.0029 44.9698 29.9599 45.0062 29.9258C45.0412 29.8885 45.0864 29.8621 45.1361 29.8501C45.1858 29.838 45.238 29.8407 45.2862 29.8579C47.3057 30.4437 48.7397 33.5937 49.3166 35.0966C49.7835 33.7031 49.903 32.2166 49.6645 30.7664C49.6505 30.7171 49.6501 30.665 49.6636 30.6156C49.6771 30.5662 49.7038 30.5214 49.7409 30.4862C49.777 30.4505 49.8222 30.4254 49.8715 30.4134C49.9208 30.4014 49.9725 30.4031 50.0209 30.4183C52.4052 31.1315 54.6623 35.2579 55.5193 36.9815C56.1387 33.339 53.7459 29.722 53.7289 29.6966C52.2865 27.8286 49.97 26.9881 47.3227 26.7588C41.3407 26.2494 33.7465 28.8984 30.9379 29.9598C33.0987 30.2497 35.1586 31.0533 36.9454 32.3032ZM32.024 30.7324L32.1683 30.8683H32.4228L32.024 30.7324ZM35.1041 34.1286C35.132 33.8024 35.0953 33.4738 34.996 33.1618C34.8967 32.8498 34.7369 32.5605 34.5256 32.3104C34.3143 32.0604 34.0558 31.8545 33.7648 31.7046C33.4739 31.5548 33.1562 31.4639 32.8301 31.4371H32.5756V31.4796C32.5756 31.522 32.618 31.573 32.6434 31.6154C32.7015 31.7311 32.7525 31.8502 32.7962 31.972L32.8471 32.1503C32.8814 32.27 32.9069 32.392 32.9235 32.5154V32.6768C32.9404 32.8603 32.9404 33.0451 32.9235 33.2286C32.9104 33.3833 32.8849 33.5366 32.8471 33.6871C32.8471 33.7381 32.8471 33.789 32.8046 33.84L32.7028 34.1286L32.6265 34.29C32.5863 34.3747 32.541 34.457 32.4907 34.5362L32.3889 34.6975C32.3399 34.7718 32.2861 34.8427 32.2277 34.9098L32.1004 35.0541C32.0396 35.1234 31.9744 35.1886 31.9052 35.2494L31.761 35.3683C31.6882 35.4296 31.6117 35.4863 31.5319 35.5381L31.3877 35.6315C31.2653 35.701 31.1376 35.7607 31.0058 35.8098C31.3979 36.1431 31.8846 36.345 32.3974 36.3871C32.7299 36.4185 33.0653 36.3827 33.3837 36.282C33.7021 36.1812 33.9971 36.0175 34.2511 35.8005C34.5051 35.5836 34.713 35.3178 34.8625 35.0189C35.0119 34.7201 35.0998 34.3942 35.1211 34.0607L35.1041 34.1286ZM10.3701 71.7334C10.1534 72.2839 10.0675 72.8772 10.119 73.4665C10.1705 74.0559 10.3581 74.6252 10.667 75.1296C11.7786 77.0655 15.1387 79.5532 24.8117 80.3853C36.6908 81.3957 39.9406 78.441 40.8315 76.5815C41.1301 76.0022 41.2687 75.3537 41.2329 74.7029C41.1971 74.052 40.9882 73.4226 40.6279 72.8796C40.1293 72.3124 39.7176 71.6743 39.4061 70.9862C38.5575 69.2881 37.6666 67.5391 31.9307 65.7476C32.041 66.1806 32.1598 66.5966 32.2786 67.0551C32.4186 67.5657 32.4065 68.1062 32.2436 68.61C32.0808 69.1138 31.7745 69.559 31.3622 69.8909C30.514 70.5676 29.5409 71.0703 28.4985 71.3704C27.456 71.6705 26.3647 71.7621 25.2869 71.64C24.6278 71.5838 23.978 71.447 23.3523 71.2325C22.3911 70.9298 21.5374 70.3565 20.8933 69.581C20.2492 68.8055 19.8421 67.8608 19.7206 66.8598V66.8004C19.7206 66.6221 19.797 65.7391 19.9328 64.3721C17.8647 64.7077 15.9113 65.5489 14.2461 66.8212C12.5809 68.0935 11.2553 69.7575 10.387 71.6655L10.3701 71.7334ZM24.6759 32.5069C24.648 32.8325 24.6844 33.1604 24.7832 33.4719C24.8819 33.7834 25.0411 34.0724 25.2514 34.3223C25.4618 34.5723 25.7194 34.7783 26.0093 34.9286C26.2993 35.079 26.616 35.1707 26.9414 35.1985C27.2261 35.226 27.5133 35.203 27.79 35.1305C27.739 35.0881 27.7051 35.0371 27.6542 34.9862L27.5863 34.9098C27.51 34.8164 27.4336 34.7145 27.3657 34.6126C27.3063 34.5192 27.2554 34.4173 27.2045 34.3239L27.1536 34.2135C27.1536 34.1371 27.0942 34.0607 27.0687 33.9758C27.0433 33.8909 27.0687 33.8909 27.0263 33.8485C27.0015 33.7705 26.9817 33.6911 26.9669 33.6107V33.4834V33.2286C26.963 33.1891 26.963 33.1493 26.9669 33.1098C26.9584 32.9826 26.9584 32.8549 26.9669 32.7277C26.9669 32.6003 26.9669 32.4815 27.0263 32.3541C27.0857 32.2268 27.0263 32.2777 27.0263 32.2353C27.0263 32.1928 27.0687 32.0739 27.0942 31.9975L27.1451 31.8617C27.1726 31.7894 27.2038 31.7185 27.2384 31.6494C27.2577 31.6052 27.2804 31.5626 27.3063 31.522C27.3063 31.4541 27.3827 31.3862 27.4251 31.3183L27.5015 31.2079C27.5535 31.1286 27.6132 31.0547 27.6796 30.9871L27.7306 30.9192C27.8112 30.8329 27.8962 30.7507 27.9851 30.673L28.0869 30.5966L28.2312 30.4777C27.9781 30.3669 27.7087 30.2981 27.4336 30.2739C26.7841 30.2019 26.1324 30.3888 25.6195 30.794C25.1065 31.1992 24.7737 31.7901 24.6929 32.439L24.6759 32.5069ZM8.94456 22.3182C8.99456 22.3228 9.04258 22.3401 9.08413 22.3683C9.12568 22.3965 9.1594 22.4348 9.18214 22.4796C9.20666 22.5237 9.21954 22.5734 9.21954 22.6239C9.21954 22.6744 9.20666 22.7241 9.18214 22.7682C8.33339 24.1841 7.84938 25.7887 7.77362 27.4381C8.93607 26.1645 11.7022 23.4475 14.0271 23.6513C14.0764 23.6548 14.1237 23.6717 14.1641 23.7001C14.2044 23.7285 14.2363 23.7674 14.2562 23.8126C14.2808 23.8567 14.2936 23.9064 14.2936 23.9569C14.2936 24.0075 14.2808 24.0571 14.2562 24.1013C13.4232 25.4432 13.1206 27.0479 13.4077 28.6013C14.2562 27.4466 16.5642 24.7041 18.4563 24.8739C18.5115 24.8763 18.5646 24.8955 18.6085 24.9289C18.6525 24.9623 18.6852 25.0082 18.7024 25.0607C18.7233 25.1112 18.728 25.1669 18.7159 25.2201C18.7037 25.2734 18.6753 25.3215 18.6346 25.3579C18.1744 25.8288 17.8376 26.4061 17.654 27.0386C17.4705 27.671 17.4459 28.3391 17.5824 28.9833C18.1094 28.178 18.8336 27.5211 19.6862 27.0752C20.5388 26.6294 21.4912 26.4094 22.4528 26.4362C22.5065 26.4396 22.5582 26.4571 22.6029 26.4869C22.6476 26.5167 22.6836 26.5578 22.7074 26.606C22.7282 26.6547 22.7353 26.7081 22.7278 26.7605C22.7203 26.8129 22.6986 26.8623 22.665 26.9032C22.0838 27.6859 21.7313 28.6147 21.6468 29.5862C23.2267 29.1921 24.8616 29.0658 26.4833 29.2126C27.269 29.2851 28.0488 29.4128 28.8167 29.5947C25.4226 26.4956 12.8222 15.6446 5.49112 20.0343C5.4487 20.0343 1.4692 22.8447 0.680088 26.8862C2.15649 25.4428 6.20388 22.0381 8.94456 22.2758V22.3182Z" fill="#999999"/>
</svg>
