<svg width="168" height="188" viewBox="0 0 168 188" fill="none" xmlns="http://www.w3.org/2000/svg">
<path d="M58.2583 104.097L55.4478 105.317L44.2155 97.4591L41.2255 99.1186C38.8236 100.558 36.4915 100.658 35.3752 100.018L35.1459 100.128C33.4118 100.888 32.3852 100.208 32.0364 99.3885C31.6876 98.5687 31.8869 97.3891 33.6211 96.6094L33.8503 96.5094C34.0596 95.5097 34.9666 93.8302 38.5047 92.8406L41.7637 91.7909L43.757 78.2052L46.5676 76.9756L48.7503 89.5616L56.7833 86.8025L57.9992 83.5735L60.2317 82.7437L60.3911 85.7428L61.1884 85.6728L61.916 87.3423L61.318 87.9321L63.4309 90.1314L61.2981 91.2011L58.1288 89.8815L50.624 93.8802L58.2583 104.097ZM58.049 89.1517L61.2383 90.4813L62.235 89.9615L60.3015 87.9621L61.029 87.2223L60.6901 86.4326L59.6935 86.5225L59.544 83.7234L58.4576 84.1233L57.2417 87.3623L48.1523 90.4713L45.9895 77.9653L44.3052 78.695L42.3617 92.3307L38.6841 93.5103C35.2556 94.46 34.5779 95.9995 34.4782 96.8293V97.0392L34.2789 97.1092C34.1522 97.1454 34.0289 97.1922 33.9101 97.2492C32.8437 97.709 32.3653 98.4388 32.6743 99.1385C32.9832 99.8383 33.8304 99.9983 34.8968 99.5284C35.0168 99.4798 35.1334 99.423 35.2456 99.3585L35.435 99.2485L35.6144 99.3785C36.342 99.9183 38.4648 100.018 40.9166 98.5587L44.2653 96.6793L55.5275 104.567L57.2118 103.837L49.5775 93.7003L58.049 89.1517Z" fill="#999999"/>
<path d="M154.714 188C154.768 188.001 154.822 187.987 154.869 187.961C154.916 187.935 154.956 187.896 154.984 187.85C155.342 187.303 155.675 186.754 155.98 186.201C156.025 186.127 156.04 186.039 156.022 185.955C156.003 185.871 155.952 185.798 155.881 185.751C155.806 185.706 155.718 185.693 155.634 185.713C155.55 185.734 155.477 185.787 155.432 185.861C155.093 186.41 154.754 186.95 154.435 187.5C154.411 187.535 154.394 187.575 154.386 187.617C154.377 187.659 154.377 187.702 154.385 187.744C154.394 187.786 154.411 187.826 154.435 187.861C154.459 187.897 154.489 187.927 154.525 187.95C154.583 187.982 154.648 187.999 154.714 188ZM156.708 184.681C156.764 184.681 156.819 184.666 156.868 184.638C156.917 184.61 156.958 184.569 156.987 184.521C157.306 183.951 157.625 183.381 157.983 182.812C158.024 182.737 158.034 182.65 158.012 182.568C157.989 182.486 157.936 182.416 157.864 182.372C157.788 182.332 157.7 182.324 157.618 182.348C157.537 182.372 157.467 182.427 157.425 182.502C157.116 183.071 156.797 183.631 156.479 184.191C156.434 184.266 156.421 184.354 156.441 184.439C156.462 184.523 156.515 184.595 156.588 184.641C156.64 184.669 156.699 184.683 156.758 184.681H156.708ZM158.562 181.262C158.621 181.261 158.68 181.244 158.731 181.213C158.782 181.181 158.823 181.136 158.851 181.082C159.15 180.502 159.439 179.912 159.718 179.333C159.736 179.295 159.747 179.253 159.75 179.211C159.752 179.169 159.746 179.126 159.732 179.086C159.719 179.046 159.697 179.01 159.669 178.978C159.64 178.947 159.606 178.921 159.568 178.903C159.53 178.884 159.489 178.873 159.447 178.871C159.405 178.868 159.363 178.874 159.323 178.888C159.283 178.902 159.246 178.924 159.215 178.952C159.183 178.98 159.158 179.015 159.14 179.053C158.861 179.633 158.572 180.212 158.273 180.792C158.254 180.83 158.243 180.872 158.24 180.914C158.238 180.956 158.244 180.998 158.258 181.038C158.272 181.078 158.293 181.115 158.321 181.147C158.35 181.178 158.384 181.204 158.422 181.222C158.449 181.242 158.48 181.256 158.512 181.263C158.545 181.27 158.579 181.27 158.611 181.262H158.562ZM160.246 177.743C160.308 177.742 160.369 177.724 160.422 177.69C160.475 177.657 160.517 177.609 160.545 177.553L161.322 175.764C161.355 175.683 161.355 175.592 161.321 175.512C161.288 175.431 161.223 175.367 161.143 175.334C161.063 175.304 160.975 175.306 160.897 175.34C160.819 175.373 160.757 175.436 160.724 175.514C160.475 176.104 160.216 176.694 159.957 177.293C159.939 177.331 159.928 177.372 159.927 177.414C159.925 177.456 159.932 177.498 159.947 177.538C159.962 177.577 159.984 177.613 160.014 177.643C160.043 177.673 160.078 177.697 160.116 177.713C160.172 177.741 160.234 177.751 160.296 177.743H160.246ZM161.751 174.154C161.815 174.154 161.877 174.134 161.93 174.099C161.983 174.063 162.025 174.013 162.05 173.954C162.289 173.335 162.518 172.725 162.747 172.115C162.762 172.075 162.768 172.033 162.765 171.99C162.763 171.948 162.752 171.906 162.733 171.868C162.715 171.83 162.689 171.796 162.657 171.768C162.625 171.74 162.588 171.719 162.548 171.705C162.469 171.679 162.382 171.684 162.306 171.719C162.23 171.754 162.171 171.817 162.14 171.895C161.92 172.505 161.691 173.105 161.452 173.714C161.422 173.794 161.424 173.882 161.457 173.961C161.491 174.039 161.553 174.101 161.631 174.134L161.751 174.154ZM163.086 170.495C163.153 170.495 163.217 170.473 163.271 170.434C163.325 170.394 163.365 170.339 163.385 170.276C163.605 169.656 163.804 169.036 163.993 168.416C164.019 168.334 164.011 168.245 163.972 168.169C163.933 168.092 163.865 168.034 163.784 168.006C163.702 167.981 163.613 167.989 163.537 168.028C163.461 168.067 163.403 168.135 163.375 168.216C163.186 168.836 162.987 169.446 162.777 170.066C162.752 170.148 162.76 170.237 162.799 170.313C162.838 170.39 162.905 170.448 162.987 170.475L163.086 170.495ZM164.242 166.777C164.313 166.775 164.381 166.751 164.436 166.708C164.492 166.665 164.532 166.605 164.551 166.537C164.731 165.907 164.91 165.277 165.07 164.657C165.091 164.574 165.079 164.485 165.036 164.411C164.993 164.336 164.923 164.281 164.84 164.257C164.8 164.247 164.758 164.245 164.716 164.25C164.675 164.256 164.635 164.27 164.599 164.292C164.563 164.313 164.531 164.341 164.506 164.375C164.481 164.408 164.462 164.447 164.452 164.487C164.282 165.107 164.113 165.737 163.933 166.357C163.921 166.397 163.917 166.44 163.922 166.482C163.926 166.525 163.939 166.566 163.96 166.603C163.98 166.64 164.008 166.673 164.041 166.699C164.074 166.726 164.112 166.745 164.153 166.757L164.242 166.777ZM165.239 163.008C165.311 163.006 165.38 162.98 165.435 162.935C165.491 162.89 165.531 162.828 165.548 162.758C165.698 162.118 165.847 161.478 165.977 160.849C165.987 160.808 165.989 160.765 165.982 160.724C165.976 160.682 165.961 160.643 165.938 160.607C165.916 160.572 165.887 160.541 165.852 160.517C165.817 160.493 165.779 160.477 165.737 160.469C165.696 160.458 165.653 160.456 165.611 160.463C165.569 160.469 165.529 160.484 165.493 160.507C165.456 160.529 165.425 160.558 165.4 160.593C165.376 160.628 165.358 160.667 165.349 160.709C165.219 161.338 165.07 161.968 164.92 162.608C164.902 162.691 164.917 162.779 164.961 162.851C165.006 162.924 165.077 162.977 165.159 162.998L165.239 163.008ZM166.056 159.189C166.132 159.19 166.205 159.165 166.263 159.117C166.321 159.07 166.361 159.003 166.375 158.929C166.495 158.289 166.614 157.65 166.724 157.01C166.739 156.926 166.719 156.84 166.671 156.771C166.622 156.702 166.548 156.655 166.465 156.64C166.423 156.631 166.38 156.631 166.338 156.64C166.296 156.648 166.256 156.665 166.221 156.689C166.185 156.713 166.155 156.745 166.132 156.781C166.109 156.817 166.093 156.857 166.086 156.9C165.977 157.53 165.867 158.169 165.737 158.809C165.729 158.851 165.729 158.895 165.737 158.937C165.746 158.979 165.762 159.019 165.787 159.054C165.811 159.09 165.842 159.12 165.878 159.143C165.914 159.166 165.954 159.182 165.997 159.189H166.056ZM166.714 155.35C166.791 155.353 166.867 155.327 166.926 155.277C166.985 155.228 167.023 155.157 167.033 155.08C167.133 154.431 167.222 153.781 167.302 153.141C167.308 153.099 167.305 153.056 167.294 153.015C167.283 152.974 167.264 152.936 167.238 152.902C167.212 152.869 167.179 152.841 167.143 152.82C167.106 152.799 167.065 152.786 167.023 152.781C166.981 152.774 166.938 152.776 166.896 152.786C166.855 152.797 166.816 152.816 166.782 152.842C166.749 152.868 166.721 152.901 166.701 152.939C166.68 152.977 166.668 153.018 166.664 153.061C166.585 153.687 166.495 154.327 166.395 154.98C166.384 155.065 166.405 155.151 166.455 155.22C166.506 155.289 166.58 155.336 166.664 155.35H166.714ZM167.202 151.482C167.283 151.484 167.361 151.456 167.421 151.401C167.48 151.347 167.516 151.272 167.521 151.192C167.591 150.542 167.661 149.892 167.711 149.252C167.716 149.166 167.688 149.082 167.632 149.016C167.576 148.951 167.497 148.91 167.412 148.902C167.37 148.897 167.328 148.9 167.287 148.912C167.247 148.924 167.21 148.944 167.178 148.971C167.146 148.999 167.12 149.033 167.102 149.071C167.084 149.109 167.074 149.15 167.073 149.192C167.013 149.832 166.953 150.482 166.884 151.132C166.879 151.174 166.884 151.216 166.896 151.257C166.908 151.297 166.929 151.334 166.955 151.367C166.982 151.4 167.015 151.426 167.053 151.446C167.09 151.466 167.131 151.478 167.173 151.482H167.202ZM167.531 147.603C167.613 147.603 167.691 147.572 167.75 147.516C167.809 147.46 167.845 147.384 167.85 147.303C167.85 146.633 167.93 145.983 167.95 145.303C167.953 145.261 167.947 145.218 167.933 145.177C167.918 145.137 167.896 145.1 167.867 145.068C167.839 145.036 167.804 145.011 167.765 144.993C167.726 144.975 167.684 144.965 167.641 144.964C167.557 144.967 167.478 145.001 167.416 145.057C167.354 145.114 167.314 145.19 167.302 145.273C167.302 145.913 167.302 146.563 167.212 147.213C167.207 147.299 167.235 147.383 167.291 147.449C167.347 147.514 167.426 147.555 167.511 147.563L167.531 147.603ZM167.681 143.704C167.765 143.704 167.847 143.67 167.906 143.61C167.966 143.55 168 143.469 168 143.384C168 142.924 168 142.474 168 142.025V141.435C168 141.35 167.966 141.268 167.906 141.208C167.847 141.148 167.765 141.115 167.681 141.115C167.596 141.115 167.515 141.148 167.455 141.208C167.396 141.268 167.362 141.35 167.362 141.435V142.025C167.362 142.474 167.362 142.924 167.362 143.374C167.361 143.417 167.368 143.46 167.383 143.5C167.399 143.54 167.422 143.576 167.452 143.607C167.482 143.638 167.517 143.662 167.557 143.679C167.596 143.695 167.638 143.704 167.681 143.704ZM167.681 139.805C167.724 139.805 167.766 139.797 167.805 139.78C167.845 139.763 167.88 139.739 167.91 139.708C167.94 139.677 167.963 139.641 167.978 139.601C167.994 139.561 168.001 139.518 168 139.475C168 138.806 167.94 138.156 167.91 137.476C167.902 137.39 167.862 137.311 167.797 137.255C167.731 137.199 167.647 137.17 167.561 137.176C167.519 137.179 167.478 137.189 167.441 137.208C167.403 137.226 167.369 137.252 167.341 137.284C167.314 137.315 167.292 137.352 167.279 137.392C167.265 137.432 167.26 137.474 167.262 137.516C167.262 138.146 167.332 138.796 167.352 139.455C167.347 139.502 167.353 139.55 167.369 139.595C167.385 139.639 167.41 139.68 167.444 139.713C167.477 139.747 167.518 139.772 167.562 139.788C167.606 139.804 167.654 139.81 167.701 139.805H167.681ZM167.452 135.916C167.494 135.913 167.534 135.901 167.572 135.881C167.609 135.861 167.642 135.834 167.669 135.802C167.696 135.769 167.716 135.732 167.728 135.691C167.741 135.651 167.745 135.609 167.741 135.567C167.681 134.9 167.611 134.234 167.531 133.567C167.528 133.524 167.516 133.483 167.495 133.445C167.475 133.408 167.447 133.375 167.413 133.348C167.379 133.322 167.341 133.303 167.299 133.292C167.258 133.282 167.215 133.28 167.173 133.287C167.089 133.3 167.013 133.344 166.961 133.411C166.909 133.478 166.885 133.563 166.894 133.647C166.973 134.257 167.043 134.907 167.103 135.577C167.099 135.626 167.106 135.675 167.125 135.721C167.143 135.767 167.171 135.808 167.208 135.841C167.245 135.874 167.289 135.898 167.336 135.911C167.383 135.924 167.433 135.926 167.482 135.916H167.452ZM166.973 132.048C167.056 132.033 167.131 131.986 167.179 131.917C167.228 131.847 167.247 131.761 167.232 131.678L167.173 131.288C167.083 130.778 166.983 130.288 166.884 129.748C166.875 129.707 166.859 129.668 166.835 129.632C166.812 129.597 166.781 129.567 166.746 129.544C166.711 129.521 166.671 129.505 166.63 129.497C166.589 129.489 166.546 129.49 166.505 129.498C166.463 129.505 166.423 129.521 166.387 129.544C166.351 129.568 166.321 129.598 166.298 129.634C166.274 129.669 166.258 129.71 166.251 129.752C166.244 129.794 166.246 129.837 166.256 129.878C166.355 130.388 166.445 130.878 166.535 131.398L166.605 131.778C166.609 131.823 166.623 131.866 166.646 131.905C166.668 131.944 166.699 131.978 166.736 132.003C166.773 132.029 166.815 132.046 166.86 132.054C166.904 132.062 166.95 132.06 166.993 132.048H166.973ZM166.206 128.229H166.276C166.317 128.221 166.356 128.204 166.39 128.18C166.425 128.157 166.454 128.126 166.477 128.09C166.499 128.055 166.514 128.015 166.52 127.974C166.527 127.932 166.525 127.89 166.515 127.849C166.365 127.209 166.216 126.579 166.046 125.94C166.035 125.899 166.015 125.86 165.989 125.827C165.963 125.794 165.93 125.766 165.893 125.746C165.856 125.725 165.815 125.712 165.773 125.708C165.731 125.703 165.688 125.707 165.648 125.72C165.607 125.73 165.569 125.749 165.536 125.774C165.502 125.799 165.474 125.831 165.453 125.867C165.431 125.903 165.417 125.943 165.411 125.985C165.406 126.026 165.408 126.069 165.418 126.11C165.588 126.739 165.747 127.359 165.887 127.989C165.907 128.062 165.952 128.126 166.014 128.169C166.076 128.213 166.15 128.234 166.226 128.229H166.206ZM165.209 124.47H165.299C165.34 124.459 165.378 124.439 165.411 124.413C165.444 124.386 165.472 124.353 165.492 124.316C165.513 124.279 165.525 124.238 165.53 124.196C165.534 124.154 165.53 124.111 165.518 124.07C165.329 123.44 165.129 122.821 164.92 122.201C164.907 122.161 164.885 122.123 164.858 122.091C164.83 122.06 164.796 122.034 164.758 122.015C164.72 121.996 164.678 121.986 164.636 121.983C164.594 121.981 164.551 121.987 164.512 122.001C164.471 122.014 164.434 122.036 164.403 122.064C164.371 122.092 164.345 122.126 164.326 122.164C164.308 122.202 164.297 122.244 164.295 122.286C164.292 122.328 164.298 122.371 164.312 122.411C164.522 123.021 164.711 123.64 164.9 124.26C164.924 124.325 164.968 124.38 165.025 124.418C165.082 124.456 165.151 124.474 165.219 124.47H165.209ZM163.963 120.771C163.999 120.781 164.037 120.781 164.073 120.771C164.152 120.742 164.217 120.682 164.252 120.606C164.288 120.529 164.291 120.441 164.262 120.361C164.033 119.752 163.794 119.142 163.535 118.542C163.519 118.502 163.496 118.466 163.467 118.436C163.437 118.405 163.402 118.381 163.363 118.364C163.324 118.347 163.282 118.338 163.24 118.338C163.197 118.338 163.155 118.346 163.116 118.362C163.078 118.378 163.043 118.402 163.013 118.432C162.984 118.462 162.96 118.498 162.945 118.537C162.929 118.576 162.921 118.617 162.921 118.659C162.922 118.702 162.93 118.743 162.947 118.782C163.196 119.382 163.435 119.981 163.654 120.591C163.684 120.65 163.73 120.698 163.787 120.73C163.843 120.762 163.908 120.776 163.973 120.771H163.963ZM162.498 117.232C162.544 117.242 162.592 117.242 162.638 117.232C162.715 117.195 162.774 117.13 162.804 117.05C162.834 116.97 162.831 116.881 162.797 116.803C162.518 116.213 162.239 115.623 161.94 115.033C161.9 114.959 161.833 114.904 161.754 114.878C161.674 114.852 161.587 114.857 161.512 114.893C161.434 114.932 161.375 115 161.347 115.082C161.319 115.165 161.324 115.255 161.362 115.333C161.661 115.903 161.94 116.483 162.209 117.072C162.237 117.124 162.28 117.166 162.331 117.194C162.382 117.223 162.44 117.236 162.498 117.232ZM160.744 113.753C160.793 113.767 160.845 113.767 160.894 113.753C160.931 113.734 160.965 113.706 160.992 113.673C161.019 113.64 161.039 113.602 161.051 113.561C161.063 113.52 161.067 113.477 161.062 113.434C161.057 113.392 161.044 113.351 161.023 113.314C160.704 112.744 160.375 112.174 160.027 111.624C160.006 111.587 159.978 111.554 159.945 111.528C159.911 111.502 159.872 111.484 159.831 111.473C159.79 111.463 159.747 111.461 159.705 111.468C159.664 111.475 159.624 111.491 159.588 111.514C159.552 111.536 159.521 111.564 159.496 111.598C159.47 111.632 159.452 111.67 159.442 111.711C159.432 111.752 159.43 111.795 159.436 111.836C159.442 111.878 159.457 111.918 159.478 111.954C159.817 112.504 160.136 113.064 160.475 113.633C160.508 113.661 160.546 113.682 160.587 113.694C160.629 113.706 160.672 113.709 160.714 113.703L160.744 113.753ZM158.751 110.425C158.809 110.442 158.872 110.442 158.93 110.425C158.966 110.401 158.997 110.371 159.021 110.336C159.045 110.3 159.062 110.261 159.07 110.219C159.078 110.177 159.078 110.133 159.07 110.092C159.061 110.05 159.044 110.01 159.02 109.975C158.651 109.435 158.282 108.895 157.894 108.365C157.842 108.298 157.767 108.253 157.683 108.24C157.6 108.227 157.515 108.247 157.445 108.295C157.378 108.347 157.334 108.422 157.321 108.506C157.308 108.59 157.327 108.675 157.376 108.745C157.754 109.265 158.123 109.795 158.482 110.335C158.545 110.372 158.619 110.386 158.691 110.375L158.751 110.425ZM114.898 108.215H115.307C115.349 108.213 115.39 108.202 115.428 108.183C115.465 108.165 115.499 108.139 115.527 108.108C115.555 108.076 115.576 108.039 115.589 107.999C115.603 107.959 115.609 107.917 115.606 107.875C115.605 107.833 115.595 107.791 115.577 107.753C115.559 107.714 115.533 107.68 115.501 107.651C115.47 107.623 115.432 107.602 115.392 107.589C115.352 107.576 115.309 107.571 115.267 107.575C114.886 107.611 114.502 107.611 114.121 107.575C113.892 107.547 113.666 107.503 113.443 107.445C113.36 107.424 113.272 107.436 113.197 107.479C113.123 107.522 113.068 107.592 113.044 107.675C113.034 107.717 113.032 107.76 113.039 107.802C113.045 107.844 113.06 107.885 113.082 107.921C113.104 107.957 113.134 107.989 113.168 108.013C113.203 108.038 113.242 108.056 113.284 108.065C113.535 108.135 113.792 108.185 114.051 108.215C114.298 108.21 114.544 108.194 114.789 108.165L114.898 108.215ZM117.191 107.825H117.29C117.938 107.597 118.541 107.259 119.074 106.826C119.134 106.764 119.167 106.682 119.167 106.596C119.167 106.51 119.134 106.427 119.074 106.366C119.044 106.335 119.009 106.31 118.969 106.294C118.93 106.277 118.888 106.268 118.845 106.268C118.802 106.268 118.76 106.277 118.72 106.294C118.681 106.31 118.645 106.335 118.616 106.366C118.14 106.747 117.604 107.048 117.031 107.256C116.991 107.269 116.954 107.29 116.922 107.318C116.89 107.346 116.864 107.38 116.846 107.419C116.827 107.457 116.816 107.498 116.814 107.541C116.812 107.583 116.818 107.625 116.832 107.665C116.863 107.7 116.901 107.728 116.944 107.747C116.987 107.766 117.034 107.776 117.081 107.775L117.191 107.825ZM156.508 107.286C156.581 107.286 156.652 107.262 156.708 107.216C156.767 107.154 156.801 107.071 156.801 106.986C156.801 106.9 156.767 106.817 156.708 106.756C156.299 106.246 155.871 105.756 155.452 105.256C155.391 105.196 155.308 105.163 155.223 105.163C155.137 105.163 155.055 105.196 154.993 105.256C154.934 105.318 154.9 105.4 154.9 105.486C154.9 105.572 154.934 105.654 154.993 105.716C155.412 106.196 155.831 106.716 156.229 107.196C156.281 107.223 156.34 107.237 156.399 107.236L156.508 107.286ZM111.599 107.236C111.652 107.234 111.703 107.221 111.75 107.196C111.796 107.172 111.837 107.138 111.868 107.096C111.914 107.022 111.928 106.934 111.91 106.85C111.891 106.766 111.841 106.693 111.769 106.646C111.255 106.303 110.789 105.893 110.383 105.426C110.324 105.367 110.243 105.334 110.159 105.334C110.075 105.334 109.995 105.367 109.935 105.426C109.875 105.488 109.842 105.57 109.842 105.656C109.842 105.742 109.875 105.824 109.935 105.886C110.377 106.403 110.89 106.854 111.46 107.226C111.47 107.229 111.48 107.233 111.49 107.236H111.599ZM120.101 105.386C120.158 105.385 120.214 105.368 120.263 105.338C120.312 105.309 120.352 105.266 120.38 105.216C120.709 104.594 120.922 103.916 121.008 103.217C121.013 103.175 121.01 103.132 120.999 103.091C120.988 103.05 120.969 103.012 120.943 102.978C120.917 102.945 120.885 102.917 120.848 102.896C120.811 102.875 120.771 102.862 120.729 102.857C120.645 102.845 120.561 102.867 120.494 102.918C120.427 102.968 120.382 103.044 120.37 103.127C120.287 103.734 120.102 104.322 119.822 104.866C119.801 104.904 119.788 104.945 119.783 104.987C119.778 105.03 119.782 105.073 119.794 105.114C119.806 105.155 119.826 105.193 119.853 105.226C119.88 105.259 119.914 105.286 119.951 105.306C119.964 105.317 119.977 105.327 119.991 105.336L120.101 105.386ZM153.937 104.386C154.022 104.387 154.104 104.355 154.166 104.296C154.226 104.235 154.259 104.152 154.259 104.067C154.259 103.981 154.226 103.898 154.166 103.837C153.708 103.367 153.239 102.907 152.771 102.457C152.71 102.397 152.627 102.364 152.542 102.364C152.456 102.364 152.374 102.397 152.313 102.457C152.254 102.517 152.22 102.598 152.22 102.682C152.22 102.766 152.254 102.847 152.313 102.907C152.771 103.347 153.229 103.807 153.678 104.266C153.723 104.293 153.775 104.307 153.827 104.306L153.937 104.386ZM109.088 104.386C109.137 104.396 109.188 104.396 109.237 104.386C109.311 104.344 109.367 104.275 109.393 104.194C109.419 104.112 109.413 104.024 109.377 103.947C109.096 103.39 108.892 102.798 108.769 102.187C108.76 102.146 108.742 102.106 108.717 102.072C108.692 102.037 108.661 102.007 108.625 101.985C108.589 101.963 108.548 101.948 108.506 101.941C108.464 101.935 108.421 101.937 108.38 101.947C108.339 101.956 108.3 101.972 108.265 101.996C108.23 102.019 108.2 102.05 108.177 102.085C108.153 102.12 108.137 102.16 108.13 102.201C108.122 102.243 108.122 102.286 108.131 102.327C108.276 102.988 108.5 103.63 108.799 104.236C108.847 104.267 108.902 104.284 108.958 104.286L109.088 104.386ZM151.136 101.737C151.182 101.737 151.227 101.727 151.268 101.708C151.309 101.689 151.346 101.662 151.376 101.627C151.435 101.566 151.469 101.483 151.469 101.397C151.469 101.312 151.435 101.229 151.376 101.167L150.778 100.668L149.851 99.9378C149.782 99.8853 149.695 99.8622 149.609 99.8734C149.523 99.8846 149.445 99.9293 149.392 99.9978C149.343 100.066 149.322 100.151 149.333 100.235C149.344 100.318 149.387 100.395 149.452 100.448L150.369 101.167L150.957 101.667C150.975 101.659 150.991 101.649 151.007 101.637L151.136 101.737ZM120.719 101.647C120.804 101.637 120.882 101.594 120.937 101.527C120.991 101.459 121.016 101.373 121.008 101.287C120.932 100.609 120.791 99.9397 120.589 99.288C120.578 99.2471 120.558 99.2089 120.532 99.1757C120.506 99.1424 120.473 99.1147 120.436 99.0942C120.399 99.0738 120.358 99.0609 120.316 99.0564C120.274 99.0519 120.231 99.0559 120.19 99.0681C120.15 99.0794 120.112 99.099 120.079 99.1256C120.046 99.1522 120.019 99.1852 120 99.2227C119.98 99.2601 119.968 99.3012 119.965 99.3434C119.962 99.3856 119.967 99.428 119.981 99.468C120.162 100.073 120.292 100.691 120.37 101.317C120.383 101.372 120.411 101.421 120.449 101.462C120.487 101.502 120.536 101.532 120.589 101.547L120.719 101.647ZM108.31 100.648C108.392 100.648 108.47 100.617 108.529 100.561C108.588 100.505 108.624 100.429 108.629 100.348C108.675 99.733 108.816 99.1293 109.048 98.5583C109.064 98.5196 109.073 98.478 109.073 98.4359C109.074 98.3938 109.066 98.3521 109.05 98.3131C109.034 98.2741 109.011 98.2386 108.982 98.2086C108.952 98.1786 108.917 98.1548 108.878 98.1384C108.84 98.1219 108.798 98.1133 108.756 98.1129C108.715 98.1126 108.673 98.1205 108.634 98.1363C108.595 98.1521 108.56 98.1754 108.53 98.2049C108.5 98.2344 108.476 98.2696 108.46 98.3084C108.196 98.9446 108.037 99.6201 107.991 100.308C107.987 100.351 107.992 100.394 108.005 100.435C108.018 100.476 108.039 100.514 108.067 100.546C108.095 100.579 108.129 100.606 108.167 100.625C108.206 100.644 108.248 100.655 108.29 100.658L108.31 100.648ZM147.917 99.2381C147.97 99.239 148.023 99.2266 148.069 99.2022C148.116 99.1778 148.157 99.142 148.186 99.0981C148.234 99.0273 148.252 98.9409 148.237 98.8571C148.222 98.7732 148.175 98.6984 148.107 98.6482C147.568 98.2784 147.01 97.9185 146.462 97.5786C146.388 97.5342 146.299 97.5208 146.215 97.5414C146.132 97.5619 146.059 97.6148 146.014 97.6886C145.992 97.7246 145.978 97.7646 145.971 97.8063C145.965 97.848 145.967 97.8904 145.977 97.9313C145.988 97.9722 146.006 98.0106 146.031 98.0445C146.056 98.0783 146.087 98.1068 146.123 98.1284C146.668 98.4683 147.206 98.8182 147.738 99.1781C147.79 99.2158 147.853 99.2367 147.917 99.2381ZM119.513 97.7885C119.555 97.7987 119.6 97.7987 119.642 97.7885C119.721 97.7534 119.783 97.6887 119.815 97.6083C119.846 97.5279 119.845 97.4383 119.812 97.3586C119.563 96.7888 119.274 96.189 118.945 95.5892C118.925 95.5514 118.898 95.5179 118.865 95.4908C118.832 95.4637 118.794 95.4435 118.753 95.4313C118.712 95.4192 118.669 95.4154 118.627 95.4202C118.584 95.425 118.543 95.4383 118.506 95.4593C118.432 95.5014 118.377 95.5708 118.353 95.6529C118.329 95.735 118.337 95.8233 118.377 95.8991C118.695 96.4789 118.985 97.0588 119.224 97.6186C119.247 97.6766 119.287 97.7265 119.338 97.762C119.39 97.7976 119.45 97.8172 119.513 97.8185V97.7885ZM144.559 97.2387C144.618 97.24 144.676 97.2249 144.727 97.1949C144.778 97.1648 144.82 97.1212 144.848 97.0687C144.887 96.9929 144.896 96.9046 144.872 96.8225C144.847 96.7405 144.792 96.671 144.718 96.6289C144.15 96.319 143.562 96.0191 142.974 95.7292C142.936 95.7105 142.895 95.6996 142.853 95.697C142.811 95.6945 142.768 95.7004 142.728 95.7143C142.689 95.7283 142.652 95.75 142.62 95.7783C142.589 95.8066 142.563 95.8409 142.545 95.8791C142.527 95.9172 142.516 95.9585 142.513 96.0008C142.511 96.043 142.517 96.0854 142.531 96.1254C142.544 96.1654 142.566 96.2022 142.594 96.2337C142.623 96.2652 142.657 96.2908 142.695 96.309C143.273 96.5889 143.851 96.8888 144.409 97.1987C144.454 97.2259 144.506 97.2398 144.559 97.2387ZM109.596 96.9888C109.644 96.9881 109.691 96.977 109.734 96.9563C109.777 96.9356 109.815 96.9057 109.845 96.8688C110.248 96.396 110.703 95.9701 111.201 95.5992C111.236 95.5754 111.266 95.5444 111.289 95.5083C111.312 95.4723 111.327 95.4319 111.334 95.3896C111.34 95.3474 111.338 95.3042 111.327 95.2628C111.316 95.2215 111.297 95.1829 111.27 95.1494C111.247 95.1139 111.216 95.0837 111.18 95.0607C111.144 95.0378 111.104 95.0225 111.061 95.0159C111.019 95.0094 110.976 95.0116 110.935 95.0225C110.894 95.0335 110.855 95.0528 110.822 95.0794C110.28 95.4814 109.785 95.9443 109.347 96.4589C109.29 96.52 109.259 96.6004 109.259 96.6839C109.259 96.7674 109.29 96.8477 109.347 96.9088C109.391 96.9482 109.444 96.9753 109.502 96.9876C109.56 96.9999 109.62 96.9968 109.676 96.9788L109.596 96.9888ZM141.07 95.5392C141.134 95.5362 141.195 95.5161 141.247 95.4809C141.3 95.4456 141.342 95.3967 141.369 95.3393C141.386 95.3006 141.394 95.259 141.395 95.2169C141.395 95.1748 141.387 95.1331 141.371 95.0941C141.356 95.0551 141.332 95.0196 141.303 94.9896C141.274 94.9596 141.239 94.9358 141.2 94.9194C140.592 94.6595 139.984 94.4196 139.376 94.1897C139.295 94.1603 139.206 94.1637 139.128 94.1992C139.05 94.2346 138.989 94.2994 138.957 94.3796C138.929 94.4618 138.933 94.5521 138.971 94.6308C139.008 94.7094 139.075 94.7701 139.157 94.7995C139.755 95.0194 140.353 95.2593 140.941 95.5092C140.997 95.5337 141.06 95.5406 141.12 95.5292L141.07 95.5392ZM112.676 94.6595C112.721 94.6741 112.77 94.6741 112.815 94.6595C113.386 94.3834 113.971 94.1398 114.569 93.9297C114.609 93.9162 114.647 93.8949 114.678 93.8669C114.71 93.8389 114.736 93.8048 114.755 93.7667C114.773 93.7285 114.784 93.6871 114.786 93.6447C114.789 93.6023 114.783 93.5599 114.769 93.5199C114.755 93.4796 114.734 93.4425 114.706 93.4106C114.678 93.3787 114.644 93.3527 114.606 93.334C114.568 93.3154 114.527 93.3046 114.485 93.3022C114.442 93.2998 114.4 93.3058 114.36 93.3199C113.735 93.5382 113.123 93.7919 112.526 94.0797C112.45 94.1201 112.393 94.1888 112.367 94.2711C112.341 94.3533 112.348 94.4425 112.387 94.5196C112.423 94.5732 112.475 94.6143 112.536 94.6376C112.596 94.6608 112.663 94.665 112.726 94.6495L112.676 94.6595ZM117.659 94.3896C117.72 94.3933 117.779 94.3757 117.828 94.3396C117.865 94.3182 117.896 94.2895 117.921 94.2554C117.946 94.2213 117.964 94.1824 117.973 94.1413C117.982 94.1001 117.983 94.0574 117.975 94.0159C117.968 93.9743 117.952 93.9348 117.928 93.8998C117.769 93.6398 117.599 93.3899 117.43 93.12L118.317 92.9401C118.4 92.9254 118.474 92.8782 118.523 92.8089C118.571 92.7395 118.59 92.6537 118.576 92.5702C118.569 92.5278 118.553 92.4873 118.53 92.4511C118.507 92.415 118.477 92.3838 118.442 92.3596C118.406 92.3353 118.366 92.3185 118.324 92.31C118.282 92.3015 118.239 92.3016 118.197 92.3103C117.808 92.3802 117.42 92.4602 117.041 92.5502L116.842 92.2703C116.818 92.2351 116.787 92.2052 116.751 92.1821C116.716 92.159 116.676 92.1432 116.634 92.1358C116.592 92.1283 116.55 92.1293 116.508 92.1387C116.467 92.148 116.428 92.1656 116.393 92.1903C116.358 92.2143 116.328 92.2451 116.305 92.2808C116.282 92.3166 116.267 92.3565 116.259 92.3984C116.252 92.4403 116.253 92.4833 116.262 92.5248C116.271 92.5663 116.289 92.6055 116.313 92.6401L116.363 92.7101H116.284C116.2 92.7336 116.129 92.7881 116.085 92.8624C116.04 92.9368 116.026 93.0253 116.044 93.11C116.07 93.1916 116.125 93.2606 116.199 93.3032C116.273 93.3458 116.36 93.3589 116.443 93.3399L116.752 93.2699C116.981 93.5898 117.191 93.9197 117.39 94.2696C117.421 94.3072 117.461 94.3368 117.506 94.3559C117.551 94.375 117.6 94.3832 117.649 94.3796L117.659 94.3896ZM137.452 94.1797C137.521 94.1826 137.589 94.1626 137.645 94.1228C137.7 94.0829 137.742 94.0256 137.761 93.9597C137.787 93.8775 137.779 93.7887 137.74 93.7121C137.701 93.6355 137.633 93.5773 137.552 93.5499C136.934 93.3599 136.296 93.17 135.668 93.01C135.628 92.9981 135.585 92.9946 135.543 92.9998C135.501 93.005 135.461 93.0188 135.424 93.0404C135.388 93.062 135.356 93.0908 135.331 93.1251C135.307 93.1595 135.289 93.1985 135.28 93.24C135.269 93.2807 135.267 93.323 135.273 93.3646C135.279 93.4063 135.293 93.4463 135.314 93.4826C135.335 93.5188 135.363 93.5504 135.397 93.5757C135.43 93.6009 135.468 93.6194 135.509 93.6298C136.127 93.7898 136.745 93.9797 137.363 94.1697L137.452 94.1797ZM133.705 93.18C133.779 93.181 133.851 93.1553 133.908 93.1076C133.964 93.0599 134.002 92.9933 134.014 92.9201C134.023 92.8787 134.023 92.836 134.015 92.7945C134.008 92.7529 133.992 92.7133 133.968 92.678C133.945 92.6426 133.915 92.6123 133.88 92.5886C133.845 92.565 133.806 92.5485 133.765 92.5402C133.127 92.4002 132.479 92.2803 131.841 92.1803C131.758 92.1658 131.672 92.185 131.603 92.2337C131.534 92.2824 131.487 92.3567 131.473 92.4402C131.464 92.4824 131.464 92.526 131.473 92.5681C131.483 92.6102 131.5 92.6499 131.526 92.6847C131.551 92.7195 131.583 92.7486 131.62 92.7702C131.658 92.7918 131.699 92.8054 131.742 92.8101C132.37 92.9201 133.007 93.04 133.635 93.17L133.705 93.18ZM120.18 92.6302C120.808 92.5402 121.456 92.4702 122.094 92.4202C122.18 92.4126 122.259 92.3717 122.315 92.3063C122.37 92.2409 122.399 92.1562 122.393 92.0703C122.389 92.0282 122.377 91.9873 122.358 91.9499C122.338 91.9125 122.311 91.8794 122.279 91.8525C122.246 91.8255 122.209 91.8053 122.169 91.7929C122.128 91.7805 122.086 91.7763 122.044 91.7804C121.396 91.7804 120.739 91.9004 120.051 91.9904C120.009 91.9952 119.969 92.0085 119.933 92.0295C119.896 92.0504 119.864 92.0786 119.839 92.1123C119.814 92.1459 119.796 92.1844 119.786 92.2253C119.776 92.2662 119.775 92.3087 119.782 92.3502C119.785 92.3988 119.8 92.4458 119.824 92.4878C119.849 92.5299 119.883 92.5657 119.923 92.5927C119.963 92.6197 120.009 92.6371 120.057 92.6436C120.105 92.6501 120.154 92.6455 120.2 92.6302H120.18ZM129.868 92.5502C129.948 92.5505 130.025 92.521 130.084 92.4673C130.143 92.4137 130.179 92.3398 130.187 92.2603C130.195 92.1769 130.171 92.0935 130.119 92.0281C130.066 91.9627 129.991 91.9204 129.908 91.9104C129.26 91.8304 128.602 91.7704 127.914 91.7304C127.873 91.7277 127.831 91.7333 127.791 91.747C127.751 91.7606 127.714 91.7819 127.683 91.8098C127.651 91.8377 127.626 91.8715 127.607 91.9093C127.589 91.9472 127.578 91.9883 127.576 92.0303C127.572 92.0727 127.576 92.1154 127.589 92.1558C127.602 92.1963 127.623 92.2336 127.651 92.2655C127.68 92.2974 127.714 92.3231 127.752 92.3411C127.791 92.3592 127.832 92.3691 127.875 92.3702C128.513 92.4202 129.16 92.4702 129.788 92.5502H129.868ZM124.047 92.3103C124.695 92.3103 125.333 92.3103 125.981 92.3103C126.022 92.3116 126.064 92.3046 126.102 92.2896C126.141 92.2746 126.176 92.252 126.206 92.2231C126.236 92.1942 126.259 92.1596 126.275 92.1213C126.292 92.083 126.3 92.0419 126.3 92.0004C126.301 91.9583 126.294 91.9165 126.279 91.8771C126.265 91.8378 126.242 91.8018 126.214 91.7712C126.185 91.7405 126.15 91.7159 126.112 91.6986C126.074 91.6813 126.033 91.6717 125.991 91.6704C125.333 91.6704 124.685 91.6704 123.998 91.6704C123.955 91.6717 123.913 91.6816 123.874 91.6995C123.835 91.7174 123.8 91.743 123.771 91.7747C123.742 91.8064 123.72 91.8436 123.706 91.8841C123.692 91.9246 123.686 91.9675 123.689 92.0103C123.691 92.0562 123.703 92.1011 123.723 92.142C123.744 92.1828 123.774 92.2187 123.81 92.2472C123.846 92.2756 123.887 92.296 123.932 92.3069C123.976 92.3178 124.022 92.3189 124.067 92.3103H124.047ZM115.426 91.2006C115.499 91.2015 115.57 91.1767 115.626 91.1306C115.685 91.0708 115.718 90.9899 115.718 90.9057C115.718 90.8215 115.685 90.7407 115.626 90.6808C115.227 90.1609 114.809 89.6811 114.39 89.1513C114.33 89.092 114.25 89.0588 114.166 89.0588C114.082 89.0588 114.001 89.092 113.941 89.1513C113.882 89.2128 113.848 89.2953 113.848 89.3812C113.848 89.4671 113.882 89.5495 113.941 89.6111C114.35 90.091 114.769 90.6108 115.157 91.1006C115.189 91.1475 115.232 91.1852 115.283 91.2097C115.334 91.2343 115.39 91.245 115.446 91.2406L115.426 91.2006ZM112.895 88.2015C112.936 88.2018 112.976 88.1939 113.014 88.1785C113.051 88.163 113.085 88.1403 113.114 88.1116C113.145 88.0826 113.169 88.0477 113.186 88.0091C113.202 87.9704 113.211 87.9287 113.211 87.8866C113.211 87.8445 113.202 87.8029 113.186 87.7642C113.169 87.7256 113.145 87.6907 113.114 87.6617C112.666 87.1819 112.197 86.722 111.719 86.2822C111.69 86.2516 111.655 86.2273 111.617 86.2107C111.578 86.194 111.537 86.1854 111.495 86.1854C111.453 86.1854 111.411 86.194 111.373 86.2107C111.334 86.2273 111.299 86.2516 111.27 86.2822C111.24 86.312 111.215 86.3477 111.199 86.3872C111.182 86.4267 111.173 86.4692 111.173 86.5121C111.173 86.555 111.182 86.5974 111.199 86.6369C111.215 86.6764 111.24 86.7122 111.27 86.742C111.739 87.1719 112.197 87.6317 112.646 88.0916C112.672 88.1395 112.711 88.179 112.759 88.2055C112.806 88.232 112.861 88.2445 112.915 88.2415L112.895 88.2015ZM110.055 85.5524C110.149 85.55 110.238 85.5105 110.304 85.4424C110.363 85.3809 110.397 85.2984 110.397 85.2125C110.397 85.1266 110.363 85.0441 110.304 84.9826C109.795 84.5627 109.307 84.1628 108.749 83.783C108.714 83.7583 108.675 83.7407 108.634 83.7313C108.593 83.722 108.55 83.721 108.508 83.7284C108.466 83.7359 108.426 83.7516 108.391 83.7747C108.355 83.7978 108.324 83.8278 108.3 83.8629C108.275 83.897 108.257 83.9357 108.247 83.9768C108.237 84.0179 108.235 84.0606 108.242 84.1025C108.248 84.1443 108.263 84.1845 108.285 84.2206C108.307 84.2567 108.336 84.288 108.37 84.3128C108.888 84.686 109.397 85.0759 109.895 85.4824C109.94 85.539 110.004 85.5779 110.074 85.5924L110.055 85.5524ZM106.895 83.2931C106.949 83.2929 107.002 83.2791 107.049 83.2529C107.096 83.2266 107.136 83.1889 107.164 83.1432C107.209 83.07 107.224 82.9819 107.206 82.8979C107.187 82.8138 107.136 82.7404 107.065 82.6933C106.506 82.3534 105.928 82.0235 105.35 81.6936C105.273 81.6548 105.185 81.6477 105.103 81.6739C105.021 81.7 104.952 81.7573 104.912 81.8336C104.874 81.9091 104.867 81.9969 104.893 82.0774C104.919 82.158 104.976 82.2249 105.051 82.2634C105.619 82.5633 106.178 82.8832 106.726 83.2631C106.751 83.2869 106.781 83.3053 106.813 83.3174C106.846 83.3294 106.88 83.3347 106.915 83.3331L106.895 83.2931ZM103.447 81.4937C103.51 81.4952 103.572 81.4779 103.625 81.4441C103.678 81.4103 103.72 81.3615 103.746 81.3037C103.762 81.265 103.771 81.2234 103.771 81.1814C103.771 81.1393 103.764 81.0975 103.748 81.0585C103.732 81.0195 103.709 80.984 103.679 80.9541C103.65 80.9241 103.615 80.9003 103.576 80.8839C102.978 80.624 102.36 80.384 101.742 80.1641C101.703 80.15 101.66 80.1439 101.618 80.1464C101.576 80.1488 101.534 80.1596 101.496 80.1782C101.458 80.1968 101.424 80.2228 101.396 80.2547C101.369 80.2866 101.347 80.3238 101.334 80.364C101.32 80.4041 101.314 80.4465 101.316 80.4889C101.319 80.5312 101.329 80.5727 101.348 80.6108C101.366 80.649 101.392 80.6831 101.424 80.7111C101.456 80.7391 101.493 80.7604 101.533 80.7739C102.131 80.9838 102.739 81.2238 103.317 81.4737C103.361 81.5062 103.413 81.5268 103.467 81.5337L103.447 81.4937ZM78.6301 80.6939H78.6999L80.5935 80.294C80.6357 80.2869 80.6761 80.2713 80.7121 80.2481C80.7482 80.2249 80.7793 80.1947 80.8034 80.1593C80.8276 80.1238 80.8445 80.0839 80.8529 80.0417C80.8614 79.9996 80.8613 79.9563 80.8527 79.9142C80.8335 79.8318 80.7835 79.7598 80.7131 79.7133C80.6426 79.6668 80.557 79.6492 80.4739 79.6643C79.8361 79.7842 79.1982 79.9242 78.5604 80.0641C78.4782 80.0833 78.4065 80.1334 78.3601 80.2041C78.3137 80.2748 78.2962 80.3607 78.3112 80.444C78.3232 80.5253 78.3642 80.5993 78.4265 80.6526C78.4888 80.7059 78.5682 80.7348 78.65 80.7339L78.6301 80.6939ZM99.7791 80.2141C99.8515 80.2164 99.9225 80.1939 99.9805 80.1503C100.038 80.1067 100.08 80.0446 100.098 79.9742C100.108 79.9335 100.111 79.8911 100.105 79.8495C100.099 79.8078 100.085 79.7678 100.064 79.7316C100.043 79.6954 100.014 79.6637 99.9809 79.6384C99.9475 79.6132 99.9093 79.5948 99.8687 79.5843C99.2408 79.4143 98.603 79.2544 97.9552 79.1244C97.8707 79.1097 97.7839 79.1286 97.7132 79.1772C97.6424 79.2257 97.5934 79.3001 97.5764 79.3844C97.5615 79.4677 97.579 79.5535 97.6253 79.6242C97.6717 79.6949 97.7434 79.745 97.8256 79.7642C98.4635 79.8842 99.0913 80.0341 99.6993 80.2041L99.7791 80.2141ZM82.4373 79.9342H82.4971C83.1615 79.8209 83.7994 79.7209 84.4107 79.6343C84.4946 79.6196 84.5694 79.5728 84.6196 79.5038C84.6698 79.4348 84.6914 79.349 84.6798 79.2644C84.6749 79.2226 84.6617 79.1822 84.6408 79.1457C84.6199 79.1092 84.5918 79.0773 84.5582 79.052C84.5247 79.0268 84.4863 79.0087 84.4455 78.9988C84.4047 78.9889 84.3624 78.9874 84.321 78.9945C83.6732 79.0844 83.0353 79.1844 82.3875 79.2944C82.3042 79.309 82.2302 79.3562 82.1816 79.4255C82.133 79.4949 82.1139 79.5808 82.1283 79.6643C82.1283 79.7067 82.1369 79.7487 82.1536 79.7876C82.1704 79.8266 82.195 79.8617 82.2258 79.8908C82.2566 79.9198 82.2931 79.9422 82.3329 79.9566C82.3727 79.9709 82.415 79.9769 82.4573 79.9742L82.4373 79.9342ZM95.9818 79.4443C96.0593 79.4429 96.1339 79.414 96.1922 79.3628C96.2506 79.3115 96.289 79.2413 96.3008 79.1644C96.3063 79.1224 96.3035 79.0796 96.2924 79.0386C96.2814 78.9977 96.2623 78.9594 96.2363 78.9259C96.2104 78.8924 96.178 78.8644 96.1411 78.8435C96.1043 78.8227 96.0637 78.8095 96.0217 78.8045C95.3838 78.7146 94.726 78.6446 94.0284 78.5946C93.987 78.5905 93.9452 78.5948 93.9055 78.6073C93.8659 78.6197 93.8291 78.6401 93.7974 78.6672C93.7658 78.6943 93.7399 78.7275 93.7213 78.7648C93.7028 78.8021 93.692 78.8429 93.6895 78.8845C93.6854 78.9266 93.6896 78.969 93.7019 79.0094C93.7143 79.0498 93.7344 79.0873 93.7613 79.1199C93.7882 79.1524 93.8212 79.1793 93.8585 79.1989C93.8958 79.2186 93.9366 79.2306 93.9785 79.2344C94.6264 79.2844 95.2742 79.3544 95.8921 79.4443H95.9818ZM86.2844 79.3943C86.9223 79.3244 87.5701 79.2744 88.2079 79.2244C88.2499 79.2219 88.2908 79.211 88.3286 79.1926C88.3663 79.1741 88.4 79.1483 88.4278 79.1167C88.4556 79.0852 88.4769 79.0484 88.4904 79.0085C88.504 78.9687 88.5096 78.9265 88.5069 78.8845C88.5044 78.8416 88.4934 78.7995 88.4743 78.761C88.4553 78.7224 88.4287 78.6882 88.3961 78.6602C88.3635 78.6322 88.3257 78.611 88.2848 78.5981C88.2439 78.5851 88.2008 78.5805 88.1581 78.5846C87.5102 78.5846 86.8624 78.6846 86.1648 78.7546C86.1228 78.7583 86.082 78.7703 86.0447 78.79C86.0075 78.8097 85.9745 78.8366 85.9476 78.8691C85.9207 78.9016 85.9006 78.9392 85.8882 78.9796C85.8759 79.0199 85.8716 79.0624 85.8758 79.1044C85.8707 79.1583 85.8794 79.2127 85.9009 79.2623C85.9225 79.3119 85.9563 79.3553 85.9991 79.3882C86.0419 79.4212 86.0924 79.4427 86.1458 79.4508C86.1992 79.4588 86.2537 79.4532 86.3043 79.4343L86.2844 79.3943ZM92.1048 79.1344C92.1887 79.1346 92.2695 79.1026 92.3306 79.045C92.3918 78.9874 92.4287 78.9085 92.4337 78.8245C92.4351 78.7817 92.4278 78.739 92.4124 78.699C92.397 78.6591 92.3736 78.6226 92.3439 78.5918C92.3141 78.5611 92.2786 78.5366 92.2392 78.5199C92.1998 78.5032 92.1575 78.4946 92.1148 78.4946C91.467 78.4946 90.8092 78.4946 90.1215 78.4946C90.0788 78.4946 90.0365 78.5032 89.9971 78.5199C89.9577 78.5366 89.9221 78.5611 89.8923 78.5918C89.8626 78.6226 89.8393 78.6591 89.8239 78.699C89.8085 78.739 89.8012 78.7817 89.8026 78.8245C89.8052 78.9076 89.8399 78.9864 89.8994 79.0443C89.9589 79.1021 90.0386 79.1345 90.1215 79.1344H92.065H92.1048Z" fill="#999999"/>
<path d="M42.3118 27.1214L39.5012 28.341L28.269 20.4835L25.279 22.143C22.8771 23.5825 20.5449 23.6825 19.4287 23.0427L19.1994 23.1527C17.4652 23.9124 16.4387 23.2326 16.0899 22.4129C15.741 21.5931 15.9404 20.4135 17.6746 19.6338L17.9038 19.5338C18.1131 18.5341 19.0201 16.8547 22.5582 15.865L25.8172 14.8153L27.8105 1.22959L30.6211 0L32.8037 12.586L40.8367 9.82687L42.0527 6.59789L44.2852 5.76816L44.4446 8.76721L45.2419 8.69723L45.9695 10.3667L45.3715 10.9565L47.4844 13.1558L45.3516 14.2255L42.1822 12.9059L34.6774 16.9046L42.3118 27.1214ZM42.1025 12.1761L45.2918 13.5057L46.2884 12.9859L44.3549 10.9865L45.0825 10.2468L44.7436 9.457L43.7469 9.54696L43.5975 6.74786L42.5111 7.14773L41.2952 10.3867L32.2058 13.4957L30.043 0.989677L28.3586 1.71946L26.4152 15.3551L22.7376 16.5347C19.3091 17.4844 18.6313 19.024 18.5317 19.8537V20.0636L18.3323 20.1336C18.2057 20.1698 18.0823 20.2166 17.9636 20.2736C16.8972 20.7334 16.4188 21.4632 16.7277 22.163C17.0367 22.8627 17.8838 23.0227 18.9502 22.5529C19.0702 22.5042 19.1868 22.4474 19.2991 22.3829L19.4885 22.2729L19.6679 22.4029C20.3954 22.9427 22.5183 23.0427 24.9701 21.5832L28.3188 19.7038L39.5809 27.5913L41.2653 26.8615L33.631 16.7247L42.1025 12.1761Z" fill="#999999"/>
<path d="M138.768 111.024C138.822 111.025 138.875 111.012 138.922 110.985C138.97 110.959 139.009 110.921 139.037 110.874C139.396 110.328 139.728 109.778 140.034 109.225C140.079 109.152 140.094 109.064 140.075 108.98C140.057 108.896 140.006 108.822 139.934 108.775C139.86 108.731 139.771 108.717 139.687 108.738C139.603 108.758 139.531 108.811 139.485 108.885C139.147 109.435 138.808 109.975 138.489 110.525C138.465 110.56 138.448 110.6 138.439 110.641C138.431 110.683 138.431 110.727 138.439 110.768C138.447 110.81 138.464 110.85 138.488 110.886C138.512 110.921 138.543 110.951 138.579 110.974C138.637 111.006 138.702 111.023 138.768 111.024ZM140.761 107.705C140.818 107.705 140.873 107.69 140.922 107.662C140.97 107.634 141.011 107.594 141.04 107.545C141.359 106.976 141.678 106.406 142.037 105.836C142.077 105.761 142.087 105.674 142.065 105.592C142.043 105.51 141.99 105.44 141.917 105.396C141.842 105.357 141.754 105.348 141.672 105.372C141.59 105.396 141.521 105.452 141.479 105.526C141.17 106.096 140.851 106.656 140.532 107.216C140.488 107.29 140.474 107.379 140.495 107.463C140.515 107.547 140.568 107.62 140.642 107.665C140.694 107.694 140.752 107.708 140.811 107.705H140.761ZM142.615 104.286C142.675 104.286 142.734 104.269 142.785 104.237C142.835 104.205 142.877 104.16 142.904 104.107C143.203 103.527 143.492 102.937 143.771 102.357C143.79 102.319 143.801 102.278 143.803 102.235C143.806 102.193 143.8 102.151 143.786 102.111C143.772 102.071 143.75 102.034 143.722 102.003C143.694 101.971 143.66 101.945 143.622 101.927C143.584 101.909 143.542 101.898 143.5 101.895C143.458 101.893 143.416 101.898 143.376 101.912C143.336 101.926 143.3 101.948 143.268 101.976C143.237 102.005 143.211 102.039 143.193 102.077C142.914 102.657 142.625 103.237 142.326 103.817C142.307 103.855 142.296 103.896 142.294 103.938C142.291 103.981 142.297 104.023 142.311 104.063C142.325 104.103 142.347 104.14 142.375 104.171C142.403 104.203 142.437 104.228 142.475 104.246C142.502 104.267 142.533 104.281 142.566 104.288C142.598 104.294 142.632 104.294 142.665 104.286H142.615ZM144.299 100.768C144.362 100.767 144.423 100.748 144.476 100.715C144.528 100.681 144.571 100.634 144.598 100.578L145.376 98.7882C145.409 98.7074 145.408 98.6167 145.375 98.5361C145.341 98.4555 145.277 98.3916 145.196 98.3584C145.117 98.3284 145.029 98.3304 144.951 98.3639C144.873 98.3975 144.811 98.4599 144.778 98.5383C144.529 99.1281 144.269 99.7179 144.01 100.318C143.992 100.356 143.982 100.397 143.98 100.439C143.978 100.481 143.985 100.523 144 100.562C144.015 100.601 144.038 100.637 144.067 100.667C144.096 100.697 144.131 100.721 144.17 100.738C144.225 100.765 144.288 100.776 144.349 100.768H144.299ZM145.804 97.1787C145.868 97.1781 145.93 97.1589 145.983 97.1234C146.037 97.0879 146.078 97.0376 146.103 96.9788C146.342 96.359 146.572 95.7492 146.801 95.1394C146.815 95.0994 146.821 95.0569 146.819 95.0146C146.816 94.9722 146.805 94.9307 146.787 94.8926C146.768 94.8544 146.742 94.8204 146.711 94.7924C146.679 94.7644 146.642 94.743 146.602 94.7295C146.522 94.7031 146.436 94.708 146.36 94.7433C146.284 94.7786 146.224 94.8416 146.193 94.9194C145.974 95.5293 145.745 96.1291 145.505 96.7389C145.475 96.8186 145.477 96.9068 145.511 96.985C145.544 97.0633 145.607 97.1255 145.685 97.1587L145.804 97.1787ZM147.14 93.5199C147.206 93.5191 147.271 93.4974 147.324 93.458C147.378 93.4186 147.418 93.3633 147.439 93.3C147.658 92.6802 147.857 92.0604 148.047 91.4406C148.072 91.3584 148.064 91.2695 148.025 91.1929C147.986 91.1164 147.919 91.0581 147.837 91.0307C147.755 91.0053 147.667 91.0131 147.591 91.0523C147.514 91.0915 147.456 91.1591 147.429 91.2406C147.239 91.8604 147.04 92.4702 146.831 93.09C146.806 93.1722 146.813 93.2611 146.852 93.3377C146.891 93.4142 146.959 93.4724 147.04 93.4999L147.14 93.5199ZM148.296 89.8011C148.366 89.7995 148.434 89.7753 148.49 89.7321C148.545 89.6889 148.586 89.629 148.605 89.5612C148.784 88.9314 148.964 88.3016 149.123 87.6817C149.145 87.5983 149.133 87.5097 149.09 87.4349C149.047 87.3602 148.977 87.3053 148.894 87.2819C148.853 87.2713 148.811 87.269 148.77 87.2748C148.728 87.2807 148.688 87.2947 148.652 87.316C148.616 87.3374 148.584 87.3657 148.559 87.3993C148.534 87.4329 148.516 87.4711 148.505 87.5118C148.336 88.1316 148.166 88.7614 147.987 89.3812C147.975 89.4219 147.971 89.4646 147.975 89.5069C147.98 89.5491 147.993 89.59 148.013 89.6273C148.033 89.6645 148.061 89.6973 148.094 89.7237C148.127 89.7501 148.165 89.7696 148.206 89.7811L148.296 89.8011ZM149.293 86.0323C149.364 86.03 149.433 86.0044 149.489 85.9593C149.545 85.9142 149.584 85.8521 149.602 85.7823C149.751 85.1425 149.901 84.5028 150.03 83.873C150.04 83.8322 150.042 83.7898 150.036 83.7483C150.029 83.7068 150.014 83.6671 149.992 83.6315C149.969 83.596 149.94 83.5654 149.905 83.5416C149.871 83.5178 149.832 83.5013 149.791 83.4931C149.75 83.4827 149.707 83.4807 149.665 83.4872C149.623 83.4937 149.582 83.5086 149.546 83.5309C149.51 83.5533 149.479 83.5827 149.454 83.6174C149.429 83.6521 149.412 83.6914 149.402 83.733C149.273 84.3628 149.123 84.9926 148.974 85.6324C148.955 85.7158 148.97 85.803 149.015 85.8757C149.059 85.9484 149.13 86.001 149.213 86.0223L149.293 86.0323ZM150.11 82.2135C150.185 82.2148 150.258 82.1895 150.317 82.1419C150.375 82.0944 150.415 82.0276 150.429 81.9536C150.548 81.3138 150.668 80.674 150.778 80.0342C150.792 79.9507 150.773 79.8648 150.724 79.7955C150.676 79.7261 150.602 79.6789 150.518 79.6643C150.476 79.6556 150.433 79.6555 150.391 79.664C150.349 79.6725 150.309 79.6893 150.274 79.7136C150.239 79.7379 150.209 79.769 150.186 79.8052C150.162 79.8414 150.147 79.8818 150.14 79.9242C150.03 80.554 149.92 81.1938 149.791 81.8336C149.782 81.8757 149.782 81.9191 149.791 81.9612C149.799 82.0033 149.816 82.0433 149.84 82.0787C149.864 82.1142 149.895 82.1444 149.931 82.1675C149.967 82.1907 150.008 82.2063 150.05 82.2135H150.11ZM150.768 78.3747C150.845 78.3778 150.92 78.3519 150.979 78.3019C151.038 78.2519 151.077 78.1816 151.087 78.1048C151.186 77.455 151.276 76.8052 151.356 76.1654C151.361 76.1233 151.358 76.0806 151.347 76.0396C151.336 75.9987 151.317 75.9603 151.291 75.9268C151.265 75.8933 151.233 75.8654 151.196 75.8445C151.159 75.8237 151.119 75.8104 151.077 75.8055C151.034 75.7984 150.991 75.8002 150.95 75.8107C150.908 75.8213 150.87 75.8402 150.836 75.8666C150.802 75.8929 150.774 75.9259 150.754 75.9636C150.734 76.0012 150.721 76.0427 150.718 76.0854C150.638 76.7119 150.548 77.3517 150.449 78.0048C150.437 78.0894 150.459 78.1752 150.509 78.2442C150.559 78.3132 150.634 78.36 150.718 78.3747H150.768ZM151.256 74.5059C151.336 74.5087 151.414 74.48 151.474 74.4258C151.534 74.3717 151.57 74.2964 151.575 74.216C151.645 73.5662 151.714 72.9164 151.764 72.2766C151.77 72.1907 151.742 72.106 151.686 72.0406C151.63 71.9753 151.551 71.9344 151.465 71.9267C151.424 71.9211 151.381 71.9243 151.341 71.9362C151.301 71.9481 151.263 71.9684 151.231 71.9958C151.199 72.0231 151.173 72.0569 151.155 72.095C151.137 72.1331 151.127 72.1745 151.126 72.2167C151.067 72.8564 151.007 73.5062 150.937 74.156C150.933 74.1981 150.937 74.2405 150.949 74.2809C150.962 74.3213 150.982 74.3589 151.009 74.3914C151.036 74.4239 151.069 74.4508 151.106 74.4705C151.143 74.4901 151.184 74.5022 151.226 74.5059H151.256ZM151.585 70.6272C151.666 70.6273 151.744 70.5964 151.804 70.5406C151.863 70.4849 151.899 70.4086 151.904 70.3272C151.904 69.6575 151.983 69.0077 152.003 68.3279C152.006 68.285 152 68.2421 151.986 68.2016C151.972 68.1611 151.95 68.1239 151.921 68.0922C151.892 68.0605 151.857 68.0349 151.818 68.017C151.779 67.9991 151.737 67.9893 151.694 67.988C151.611 67.9919 151.531 68.0249 151.469 68.0815C151.407 68.1381 151.367 68.2147 151.356 68.2979C151.356 68.9377 151.356 69.5875 151.266 70.2373C151.26 70.3232 151.289 70.4079 151.344 70.4733C151.4 70.5386 151.479 70.5795 151.565 70.5872L151.585 70.6272ZM151.734 66.7284C151.819 66.7284 151.9 66.6947 151.96 66.6347C152.02 66.5747 152.053 66.4933 152.053 66.4085C152.053 65.9486 152.053 65.4988 152.053 65.0489V64.4591C152.053 64.3743 152.02 64.2929 151.96 64.2329C151.9 64.1729 151.819 64.1392 151.734 64.1392C151.65 64.1392 151.569 64.1729 151.509 64.2329C151.449 64.2929 151.415 64.3743 151.415 64.4591V65.0489C151.415 65.4988 151.415 65.9486 151.415 66.3985C151.414 66.4413 151.421 66.484 151.437 66.524C151.452 66.5639 151.475 66.6004 151.505 66.6312C151.535 66.662 151.571 66.6864 151.61 66.7031C151.649 66.7198 151.692 66.7284 151.734 66.7284ZM151.734 62.8296C151.777 62.8296 151.819 62.821 151.859 62.8043C151.898 62.7876 151.934 62.7632 151.963 62.7324C151.993 62.7017 152.017 62.6652 152.032 62.6252C152.047 62.5852 152.055 62.5426 152.053 62.4997C152.053 61.8299 151.993 61.1801 151.964 60.5004C151.956 60.4146 151.915 60.3352 151.85 60.2792C151.785 60.2232 151.7 60.1949 151.615 60.2005C151.573 60.203 151.532 60.2138 151.494 60.2323C151.456 60.2508 151.423 60.2765 151.395 60.3081C151.367 60.3397 151.346 60.3765 151.332 60.4163C151.319 60.4562 151.313 60.4983 151.316 60.5403C151.316 61.1701 151.386 61.8199 151.405 62.4797C151.401 62.5268 151.407 62.5744 151.422 62.619C151.438 62.6635 151.464 62.704 151.497 62.7375C151.531 62.771 151.571 62.7966 151.616 62.8125C151.66 62.8284 151.707 62.8343 151.754 62.8296H151.734ZM151.505 58.9409C151.547 58.9371 151.588 58.925 151.625 58.9054C151.662 58.8857 151.695 58.8589 151.722 58.8263C151.749 58.7938 151.769 58.7562 151.782 58.7158C151.794 58.6754 151.798 58.633 151.794 58.591C151.734 57.9245 151.665 57.258 151.585 56.5916C151.581 56.5489 151.569 56.5074 151.549 56.4697C151.528 56.4321 151.5 56.399 151.467 56.3727C151.433 56.3464 151.394 56.3274 151.353 56.3169C151.311 56.3064 151.268 56.3046 151.226 56.3117C151.142 56.3241 151.067 56.3685 151.015 56.4355C150.963 56.5025 150.938 56.5871 150.947 56.6716C151.027 57.2814 151.097 57.9312 151.156 58.601C151.152 58.6502 151.16 58.6996 151.178 58.7455C151.196 58.7913 151.225 58.8323 151.262 58.8652C151.298 58.8981 151.342 58.9221 151.389 58.9352C151.437 58.9483 151.487 58.9503 151.535 58.9409H151.505ZM151.027 55.0721C151.11 55.0574 151.184 55.0103 151.233 54.9409C151.281 54.8716 151.3 54.7857 151.286 54.7022L151.226 54.3123C151.136 53.8025 151.037 53.3126 150.937 52.7728C150.929 52.7314 150.912 52.692 150.889 52.6569C150.865 52.6219 150.835 52.5918 150.8 52.5686C150.764 52.5454 150.725 52.5294 150.684 52.5215C150.642 52.5137 150.6 52.5141 150.558 52.5229C150.516 52.5299 150.476 52.5456 150.441 52.5689C150.405 52.5921 150.374 52.6226 150.351 52.6582C150.328 52.6939 150.312 52.734 150.305 52.7761C150.297 52.8182 150.299 52.8613 150.309 52.9028C150.409 53.4126 150.499 53.9024 150.588 54.4223L150.658 54.8022C150.662 54.8471 150.676 54.8906 150.699 54.9296C150.722 54.9686 150.753 55.0021 150.79 55.0279C150.827 55.0536 150.869 55.0708 150.913 55.0785C150.958 55.0861 151.003 55.0839 151.047 55.0721H151.027ZM150.259 51.2533H150.329C150.37 51.2451 150.409 51.2286 150.444 51.2048C150.478 51.181 150.508 51.1504 150.53 51.1148C150.552 51.0793 150.567 51.0396 150.574 50.9981C150.58 50.9566 150.579 50.9142 150.568 50.8734C150.419 50.2336 150.269 49.6038 150.1 48.964C150.088 48.9231 150.069 48.8849 150.043 48.8516C150.016 48.8184 149.984 48.7907 149.946 48.7702C149.909 48.7497 149.869 48.7369 149.826 48.7324C149.784 48.7279 149.742 48.7319 149.701 48.7441C149.661 48.7546 149.622 48.773 149.589 48.7982C149.556 48.8235 149.527 48.8552 149.506 48.8914C149.485 48.9276 149.471 48.9676 149.465 49.0093C149.459 49.0509 149.461 49.0933 149.472 49.134C149.641 49.7638 149.801 50.3836 149.94 51.0134C149.961 51.0863 150.006 51.15 150.067 51.1937C150.129 51.2374 150.204 51.2584 150.279 51.2533H150.259ZM149.263 47.4945H149.352C149.393 47.483 149.431 47.4635 149.464 47.4371C149.498 47.4107 149.525 47.3779 149.546 47.3407C149.566 47.3034 149.579 47.2625 149.583 47.2203C149.588 47.178 149.584 47.1353 149.572 47.0946C149.382 46.4648 149.183 45.845 148.974 45.2252C148.96 45.185 148.939 45.1478 148.911 45.1159C148.883 45.084 148.849 45.058 148.811 45.0394C148.773 45.0208 148.732 45.0099 148.689 45.0075C148.647 45.0051 148.605 45.0111 148.565 45.0253C148.525 45.0388 148.488 45.0601 148.456 45.0881C148.424 45.1161 148.398 45.1502 148.38 45.1883C148.361 45.2265 148.35 45.2679 148.348 45.3103C148.346 45.3527 148.352 45.3951 148.366 45.4351C148.575 46.0449 148.764 46.6647 148.954 47.2845C148.977 47.3493 149.021 47.4048 149.078 47.4426C149.136 47.4804 149.204 47.4986 149.273 47.4945H149.263ZM148.017 43.7956C148.053 43.805 148.091 43.805 148.127 43.7956C148.206 43.7664 148.27 43.7068 148.306 43.63C148.341 43.5531 148.345 43.4653 148.316 43.3858C148.087 42.776 147.847 42.1662 147.588 41.5664C147.573 41.5267 147.55 41.4905 147.52 41.46C147.491 41.4294 147.456 41.405 147.417 41.3882C147.378 41.3715 147.336 41.3627 147.293 41.3624C147.251 41.3621 147.209 41.3702 147.17 41.3864C147.131 41.4028 147.096 41.4266 147.067 41.4566C147.037 41.4866 147.014 41.5221 146.998 41.5611C146.982 41.6001 146.974 41.6418 146.975 41.6839C146.975 41.726 146.984 41.7676 147 41.8063C147.249 42.4061 147.489 43.0059 147.708 43.6157C147.737 43.674 147.783 43.7222 147.84 43.7543C147.897 43.7863 147.962 43.8007 148.027 43.7956H148.017ZM146.552 40.2568C146.598 40.2662 146.645 40.2662 146.691 40.2568C146.768 40.2199 146.828 40.1544 146.858 40.0742C146.887 39.994 146.885 39.9053 146.851 39.8269C146.572 39.2371 146.293 38.6473 145.994 38.0575C145.953 37.9838 145.887 37.9283 145.807 37.9023C145.727 37.8763 145.641 37.8817 145.565 37.9175C145.487 37.9562 145.428 38.0242 145.4 38.1066C145.372 38.1889 145.378 38.2791 145.416 38.3574C145.715 38.9272 145.994 39.507 146.263 40.0968C146.291 40.1482 146.333 40.1904 146.384 40.2188C146.435 40.2471 146.493 40.2603 146.552 40.2568ZM144.798 36.7779C144.847 36.7915 144.898 36.7915 144.947 36.7779C144.985 36.758 145.018 36.7307 145.045 36.6976C145.072 36.6646 145.092 36.6264 145.105 36.5854C145.117 36.5444 145.12 36.5014 145.116 36.4589C145.111 36.4164 145.098 36.3753 145.077 36.338C144.758 35.7682 144.429 35.1984 144.08 34.6485C144.06 34.6113 144.032 34.5787 143.998 34.5528C143.964 34.5269 143.926 34.5082 143.885 34.4979C143.844 34.4876 143.801 34.4859 143.759 34.4929C143.717 34.4999 143.677 34.5154 143.642 34.5386C143.606 34.5602 143.574 34.5887 143.549 34.6225C143.524 34.6563 143.506 34.6948 143.496 34.7357C143.485 34.7765 143.483 34.819 143.49 34.8607C143.496 34.9023 143.51 34.9424 143.532 34.9784C143.871 35.5283 144.19 36.0881 144.529 36.6579C144.561 36.6856 144.6 36.7061 144.641 36.7182C144.682 36.7302 144.725 36.7335 144.768 36.7279L144.798 36.7779ZM142.804 33.4489C142.863 33.4667 142.925 33.4667 142.984 33.4489C143.02 33.4257 143.05 33.3955 143.074 33.3602C143.098 33.3248 143.115 33.2849 143.123 33.243C143.132 33.2011 143.132 33.1579 143.123 33.116C143.114 33.0741 143.098 33.0343 143.073 32.9991C142.705 32.4592 142.336 31.9194 141.947 31.3896C141.896 31.3224 141.82 31.2776 141.737 31.2645C141.653 31.2515 141.568 31.2712 141.499 31.3196C141.432 31.3712 141.387 31.4468 141.374 31.5305C141.361 31.6143 141.381 31.6998 141.429 31.7695C141.808 32.2893 142.176 32.8191 142.535 33.359C142.598 33.396 142.672 33.4101 142.745 33.3989L142.804 33.4489ZM98.9517 31.2396H99.3604C99.4023 31.2371 99.4433 31.2263 99.481 31.2078C99.5187 31.1893 99.5524 31.1635 99.5802 31.132C99.608 31.1004 99.6293 31.0636 99.6429 31.0238C99.6564 30.9839 99.662 30.9418 99.6593 30.8997C99.6582 30.8572 99.6483 30.8154 99.6303 30.7769C99.6124 30.7384 99.5867 30.704 99.5549 30.6759C99.5231 30.6478 99.4859 30.6265 99.4456 30.6134C99.4053 30.6003 99.3626 30.5957 99.3205 30.5998C98.9392 30.6349 98.5556 30.6349 98.1743 30.5998C97.9459 30.571 97.7196 30.5276 97.4966 30.4699C97.4134 30.4484 97.3251 30.4604 97.2506 30.5033C97.1761 30.5463 97.1213 30.6168 97.0979 30.6998C97.0876 30.7412 97.0856 30.7842 97.0921 30.8264C97.0986 30.8685 97.1134 30.9089 97.1357 30.9453C97.1579 30.9816 97.1873 31.0131 97.2219 31.0379C97.2565 31.0627 97.2956 31.0803 97.3371 31.0897C97.5886 31.1597 97.8452 31.2099 98.1046 31.2396C98.3511 31.2347 98.5972 31.2181 98.8421 31.1896L98.9517 31.2396ZM101.244 30.8497H101.344C101.991 30.6217 102.595 30.2835 103.128 29.8501C103.187 29.7885 103.221 29.706 103.221 29.6201C103.221 29.5343 103.187 29.4518 103.128 29.3902C103.098 29.3594 103.062 29.3349 103.023 29.3181C102.984 29.3014 102.941 29.2927 102.898 29.2927C102.856 29.2927 102.813 29.3014 102.774 29.3181C102.735 29.3349 102.699 29.3594 102.669 29.3902C102.193 29.7717 101.658 30.0723 101.085 30.2799C101.044 30.2934 101.007 30.3148 100.976 30.3428C100.944 30.3708 100.918 30.4048 100.899 30.443C100.881 30.4811 100.87 30.5226 100.868 30.565C100.865 30.6073 100.871 30.6498 100.885 30.6898C100.917 30.7249 100.955 30.7529 100.998 30.7719C101.041 30.7908 101.087 30.8003 101.134 30.7998L101.244 30.8497ZM140.562 30.3099C140.634 30.3108 140.705 30.286 140.761 30.2399C140.821 30.1784 140.854 30.0959 140.854 30.01C140.854 29.9242 140.821 29.8417 140.761 29.7801C140.353 29.2703 139.924 28.7804 139.505 28.2806C139.444 28.2207 139.362 28.1872 139.276 28.1872C139.191 28.1872 139.108 28.2207 139.047 28.2806C138.987 28.3421 138.954 28.4246 138.954 28.5105C138.954 28.5964 138.987 28.6788 139.047 28.7404C139.466 29.2203 139.884 29.7401 140.283 30.22C140.335 30.2479 140.393 30.2616 140.452 30.2599L140.562 30.3099ZM95.6528 30.2599C95.7052 30.2584 95.7567 30.245 95.8033 30.2208C95.8499 30.1966 95.8904 30.1621 95.9219 30.12C95.9671 30.0468 95.9819 29.9588 95.9633 29.8747C95.9447 29.7906 95.8941 29.7172 95.8222 29.6701C95.3081 29.3276 94.8422 28.9174 94.4369 28.4505C94.3772 28.3913 94.2966 28.3581 94.2126 28.3581C94.1287 28.3581 94.0481 28.3913 93.9884 28.4505C93.9287 28.5121 93.8953 28.5946 93.8953 28.6804C93.8953 28.7663 93.9287 28.8488 93.9884 28.9104C94.4305 29.4275 94.9439 29.8786 95.5132 30.2499C95.523 30.2539 95.533 30.2572 95.5432 30.2599H95.6528ZM104.154 28.4105C104.211 28.409 104.267 28.3925 104.316 28.3627C104.365 28.3329 104.406 28.2908 104.433 28.2406C104.762 27.6181 104.975 26.9405 105.061 26.2412C105.067 26.1992 105.064 26.1564 105.053 26.1154C105.042 26.0745 105.023 26.0361 104.997 26.0027C104.971 25.9692 104.938 25.9412 104.902 25.9204C104.865 25.8995 104.824 25.8863 104.782 25.8813C104.699 25.8699 104.615 25.8918 104.547 25.9423C104.48 25.9929 104.436 26.0679 104.423 26.1513C104.341 26.7582 104.155 27.3464 103.875 27.8907C103.854 27.928 103.841 27.9691 103.836 28.0116C103.832 28.054 103.835 28.0971 103.847 28.1381C103.859 28.1791 103.88 28.2172 103.907 28.2503C103.934 28.2834 103.967 28.3107 104.005 28.3306C104.017 28.3413 104.031 28.3514 104.045 28.3605L104.154 28.4105ZM137.991 27.4108C138.076 27.4117 138.158 27.3795 138.22 27.3209C138.279 27.2593 138.313 27.1768 138.313 27.0909C138.313 27.0051 138.279 26.9226 138.22 26.861C137.761 26.3912 137.293 25.9313 136.824 25.4815C136.763 25.4216 136.681 25.3881 136.595 25.3881C136.51 25.3881 136.427 25.4216 136.366 25.4815C136.307 25.5413 136.274 25.6222 136.274 25.7064C136.274 25.7906 136.307 25.8714 136.366 25.9313C136.824 26.3712 137.283 26.831 137.731 27.2909C137.777 27.3171 137.828 27.3309 137.881 27.3309L137.991 27.4108ZM93.1412 27.4108C93.1906 27.4203 93.2413 27.4203 93.2907 27.4108C93.3649 27.3686 93.4205 27.2999 93.4463 27.2183C93.4722 27.1368 93.4665 27.0485 93.4303 26.971C93.1496 26.4146 92.9451 25.8228 92.8223 25.2115C92.813 25.1699 92.7954 25.1306 92.7707 25.0959C92.746 25.0612 92.7146 25.0318 92.6783 25.0095C92.6421 24.9871 92.6018 24.9722 92.5598 24.9657C92.5178 24.9592 92.4749 24.9612 92.4336 24.9716C92.3923 24.9799 92.353 24.9964 92.318 25.0201C92.2831 25.0437 92.2532 25.0741 92.23 25.1094C92.2069 25.1447 92.1909 25.1843 92.1831 25.2259C92.1752 25.2674 92.1757 25.3101 92.1845 25.3515C92.329 26.0128 92.5532 26.6539 92.8522 27.2609C92.9002 27.291 92.9551 27.3083 93.0117 27.3109L93.1412 27.4108ZM135.19 24.7617C135.235 24.7615 135.28 24.7516 135.321 24.7326C135.363 24.7136 135.399 24.6861 135.429 24.6517C135.489 24.5902 135.522 24.5077 135.522 24.4218C135.522 24.3359 135.489 24.2534 135.429 24.1919L134.831 23.692L133.904 22.9623C133.835 22.9097 133.749 22.8866 133.663 22.8978C133.577 22.909 133.499 22.9537 133.446 23.0222C133.396 23.0907 133.375 23.1754 133.386 23.2591C133.397 23.3428 133.44 23.419 133.506 23.4721L134.423 24.1919L135.011 24.6917C135.028 24.6833 135.045 24.6733 135.06 24.6617L135.19 24.7617ZM104.772 24.6717C104.858 24.6617 104.936 24.6183 104.99 24.551C105.044 24.4837 105.07 24.3978 105.061 24.3118C104.985 23.6336 104.845 22.9641 104.643 22.3124C104.631 22.2715 104.612 22.2334 104.585 22.2001C104.559 22.1668 104.526 22.1391 104.489 22.1187C104.452 22.0982 104.411 22.0853 104.369 22.0808C104.327 22.0763 104.284 22.0803 104.244 22.0925C104.203 22.1038 104.165 22.1234 104.133 22.15C104.1 22.1766 104.073 22.2096 104.053 22.2471C104.033 22.2845 104.022 22.3256 104.019 22.3678C104.015 22.41 104.021 22.4524 104.035 22.4924C104.215 23.097 104.345 23.7156 104.423 24.3418C104.437 24.396 104.464 24.4457 104.502 24.4861C104.541 24.5264 104.589 24.5559 104.643 24.5717L104.772 24.6717ZM92.3638 23.672C92.4451 23.6722 92.5233 23.6412 92.5826 23.5855C92.6419 23.5298 92.6777 23.4534 92.6828 23.3721C92.7287 22.7574 92.8699 22.1537 93.1014 21.5827C93.1178 21.544 93.1264 21.5024 93.1268 21.4603C93.1272 21.4182 93.1192 21.3765 93.1035 21.3375C93.0878 21.2985 93.0645 21.263 93.0351 21.233C93.0056 21.203 92.9706 21.1792 92.9319 21.1628C92.8933 21.1464 92.8519 21.1377 92.8099 21.1373C92.768 21.137 92.7264 21.1449 92.6875 21.1607C92.6486 21.1765 92.6132 21.1998 92.5833 21.2293C92.5534 21.2589 92.5297 21.294 92.5134 21.3328C92.2492 21.969 92.0909 22.6445 92.0449 23.3321C92.0408 23.375 92.0454 23.4182 92.0583 23.4592C92.0712 23.5002 92.0923 23.5382 92.1202 23.5708C92.1481 23.6035 92.1823 23.6302 92.2208 23.6493C92.2592 23.6684 92.3011 23.6795 92.3439 23.682L92.3638 23.672ZM131.971 22.2625C132.024 22.2634 132.076 22.2511 132.123 22.2266C132.17 22.2022 132.21 22.1664 132.24 22.1225C132.287 22.0517 132.305 21.9653 132.29 21.8815C132.275 21.7976 132.229 21.7228 132.16 21.6727C131.622 21.3028 131.064 20.9429 130.516 20.603C130.441 20.5586 130.353 20.5452 130.269 20.5658C130.185 20.5864 130.113 20.6392 130.067 20.713C130.045 20.7491 130.031 20.789 130.025 20.8307C130.019 20.8724 130.021 20.9149 130.031 20.9557C130.041 20.9966 130.059 21.0351 130.084 21.0689C130.109 21.1027 130.141 21.1312 130.177 21.1528C130.722 21.4927 131.26 21.8426 131.791 22.2025C131.844 22.2402 131.906 22.2611 131.971 22.2625ZM103.566 20.8129C103.609 20.8231 103.653 20.8231 103.696 20.8129C103.775 20.7778 103.836 20.7131 103.868 20.6327C103.9 20.5523 103.899 20.4627 103.865 20.3831C103.616 19.8132 103.327 19.2134 102.998 18.6136C102.978 18.5758 102.951 18.5423 102.918 18.5152C102.885 18.4881 102.847 18.4679 102.806 18.4558C102.765 18.4436 102.722 18.4399 102.68 18.4447C102.638 18.4494 102.597 18.4627 102.56 18.4837C102.485 18.5258 102.43 18.5953 102.406 18.6773C102.382 18.7594 102.391 18.8477 102.43 18.9235C102.749 19.5033 103.038 20.0832 103.277 20.643C103.301 20.701 103.34 20.7509 103.392 20.7864C103.443 20.822 103.504 20.8416 103.566 20.8429V20.8129ZM128.612 20.2631C128.671 20.2645 128.73 20.2493 128.781 20.2193C128.832 20.1893 128.873 20.1456 128.901 20.0931C128.941 20.0173 128.949 19.929 128.925 19.8469C128.901 19.7649 128.846 19.6955 128.771 19.6533C128.203 19.3434 127.615 19.0435 127.027 18.7536C126.989 18.7349 126.948 18.724 126.906 18.7214C126.864 18.7189 126.822 18.7248 126.782 18.7387C126.742 18.7527 126.705 18.7744 126.674 18.8027C126.642 18.831 126.617 18.8653 126.599 18.9036C126.58 18.9416 126.569 18.9829 126.567 19.0252C126.564 19.0675 126.57 19.1098 126.584 19.1498C126.598 19.1898 126.62 19.2266 126.648 19.2581C126.676 19.2896 126.71 19.3152 126.748 19.3334C127.326 19.6133 127.904 19.9132 128.463 20.2231C128.508 20.2503 128.559 20.2642 128.612 20.2631ZM93.6495 20.0132C93.6972 20.0125 93.7443 20.0014 93.7873 19.9807C93.8303 19.96 93.8683 19.9302 93.8987 19.8932C94.3016 19.4204 94.7563 18.9945 95.2542 18.6236C95.2896 18.5998 95.3196 18.5688 95.3425 18.5328C95.3654 18.4967 95.3806 18.4563 95.3871 18.414C95.3937 18.3718 95.3915 18.3286 95.3806 18.2873C95.3697 18.2459 95.3504 18.2073 95.3239 18.1738C95.3001 18.1383 95.2693 18.1081 95.2333 18.0851C95.1973 18.0622 95.157 18.0469 95.1149 18.0404C95.0728 18.0338 95.0298 18.036 94.9886 18.0469C94.9474 18.0579 94.9088 18.0772 94.8754 18.1038C94.333 18.5058 93.8381 18.9687 93.4003 19.4834C93.3436 19.5444 93.3121 19.6248 93.3121 19.7083C93.3121 19.7918 93.3436 19.8722 93.4003 19.9332C93.4444 19.9726 93.4978 19.9997 93.5555 20.012C93.6132 20.0243 93.6731 20.0212 93.7293 20.0032L93.6495 20.0132ZM125.124 18.5636C125.187 18.5607 125.248 18.5405 125.301 18.5053C125.354 18.47 125.396 18.4211 125.423 18.3637C125.439 18.325 125.448 18.2834 125.448 18.2413C125.449 18.1992 125.441 18.1575 125.425 18.1185C125.409 18.0795 125.386 18.044 125.356 18.014C125.327 17.9841 125.292 17.9602 125.253 17.9438C124.645 17.6839 124.037 17.444 123.429 17.2141C123.349 17.1847 123.26 17.1881 123.182 17.2236C123.103 17.2591 123.042 17.3238 123.011 17.404C122.982 17.4862 122.987 17.5765 123.024 17.6552C123.062 17.7338 123.128 17.7945 123.21 17.8239C123.808 18.0438 124.406 18.2837 124.994 18.5336C125.051 18.5581 125.113 18.5651 125.174 18.5537L125.124 18.5636ZM96.7292 17.6839C96.7746 17.6985 96.8234 17.6985 96.8687 17.6839C97.4393 17.4079 98.0249 17.1642 98.6228 16.9542C98.6629 16.9407 98.7 16.9193 98.7318 16.8913C98.7636 16.8633 98.7895 16.8292 98.8081 16.7911C98.8266 16.7529 98.8374 16.7115 98.8398 16.6691C98.8422 16.6267 98.8362 16.5843 98.8221 16.5443C98.8087 16.504 98.7874 16.4669 98.7595 16.435C98.7316 16.4031 98.6976 16.3771 98.6596 16.3585C98.6216 16.3399 98.5802 16.329 98.538 16.3266C98.4957 16.3242 98.4534 16.3302 98.4135 16.3443C97.7884 16.5626 97.1761 16.8163 96.5797 17.1041C96.5037 17.1446 96.4466 17.2133 96.4205 17.2955C96.3944 17.3777 96.4014 17.4669 96.4401 17.544C96.4767 17.5976 96.5288 17.6388 96.5893 17.662C96.6499 17.6852 96.716 17.6894 96.779 17.6739L96.7292 17.6839ZM101.712 17.414C101.773 17.4178 101.833 17.4001 101.882 17.364C101.918 17.3426 101.95 17.3139 101.975 17.2798C101.999 17.2457 102.017 17.2069 102.026 17.1657C102.036 17.1245 102.037 17.0818 102.029 17.0403C102.021 16.9987 102.005 16.9592 101.982 16.9242C101.822 16.6642 101.653 16.4143 101.483 16.1444L102.37 15.9645C102.453 15.9498 102.527 15.9026 102.576 15.8333C102.625 15.7639 102.644 15.6781 102.629 15.5946C102.622 15.5522 102.607 15.5117 102.584 15.4756C102.56 15.4394 102.53 15.4082 102.495 15.384C102.46 15.3597 102.42 15.3429 102.378 15.3344C102.336 15.3259 102.293 15.326 102.251 15.3347C101.862 15.4047 101.473 15.4846 101.095 15.5746L100.895 15.2947C100.871 15.2595 100.841 15.2296 100.805 15.2065C100.769 15.1834 100.729 15.1676 100.688 15.1602C100.646 15.1528 100.603 15.1537 100.562 15.1631C100.52 15.1725 100.481 15.19 100.447 15.2147C100.412 15.2387 100.382 15.2695 100.359 15.3052C100.336 15.341 100.32 15.3809 100.313 15.4228C100.305 15.4647 100.306 15.5077 100.316 15.5492C100.325 15.5907 100.342 15.6299 100.367 15.6646L100.417 15.7345H100.337C100.254 15.758 100.183 15.8125 100.138 15.8868C100.094 15.9612 100.079 16.0497 100.098 16.1344C100.123 16.216 100.178 16.285 100.252 16.3276C100.326 16.3702 100.413 16.3833 100.496 16.3643L100.805 16.2944C101.035 16.6143 101.244 16.9442 101.443 17.294C101.475 17.3316 101.515 17.3612 101.56 17.3803C101.605 17.3994 101.654 17.4076 101.702 17.404L101.712 17.414ZM121.506 17.2041C121.574 17.207 121.642 17.187 121.698 17.1472C121.754 17.1074 121.795 17.05 121.815 16.9841C121.84 16.9019 121.832 16.8131 121.793 16.7365C121.754 16.6599 121.687 16.6017 121.606 16.5743C120.988 16.3843 120.35 16.1944 119.722 16.0344C119.681 16.0225 119.639 16.019 119.597 16.0242C119.555 16.0294 119.514 16.0433 119.478 16.0648C119.441 16.0864 119.41 16.1152 119.385 16.1495C119.36 16.1839 119.342 16.223 119.333 16.2644C119.323 16.3051 119.32 16.3474 119.326 16.3891C119.332 16.4307 119.346 16.4708 119.367 16.507C119.389 16.5432 119.417 16.5748 119.45 16.6001C119.484 16.6254 119.522 16.6438 119.562 16.6543C120.18 16.8142 120.798 17.0041 121.416 17.1941L121.506 17.2041ZM117.759 16.2044C117.833 16.2054 117.904 16.1797 117.961 16.132C118.018 16.0843 118.056 16.0177 118.067 15.9445C118.076 15.9031 118.077 15.8604 118.069 15.8189C118.061 15.7773 118.045 15.7377 118.022 15.7024C117.999 15.6671 117.969 15.6367 117.934 15.6131C117.899 15.5894 117.86 15.5729 117.818 15.5646C117.18 15.4246 116.533 15.3047 115.895 15.2047C115.812 15.1902 115.726 15.2094 115.657 15.2581C115.588 15.3069 115.541 15.3812 115.526 15.4646C115.517 15.5069 115.518 15.5504 115.527 15.5925C115.536 15.6346 115.554 15.6743 115.579 15.7091C115.605 15.7439 115.637 15.7731 115.674 15.7946C115.711 15.8162 115.752 15.8298 115.795 15.8345C116.423 15.9445 117.061 16.0644 117.689 16.1944L117.759 16.2044ZM104.234 15.6546C104.862 15.5646 105.51 15.4946 106.148 15.4446C106.233 15.437 106.312 15.3961 106.368 15.3307C106.424 15.2654 106.452 15.1807 106.447 15.0947C106.443 15.0527 106.431 15.0117 106.411 14.9743C106.392 14.937 106.365 14.9038 106.332 14.8769C106.3 14.8499 106.262 14.8297 106.222 14.8173C106.182 14.805 106.14 14.8007 106.098 14.8048C105.45 14.8048 104.792 14.9248 104.104 15.0148C104.063 15.0196 104.022 15.0329 103.986 15.0539C103.95 15.0748 103.918 15.103 103.893 15.1367C103.868 15.1704 103.849 15.2088 103.84 15.2497C103.83 15.2907 103.828 15.3331 103.835 15.3746C103.839 15.4232 103.854 15.4702 103.878 15.5123C103.902 15.5543 103.936 15.5902 103.976 15.6171C104.017 15.6441 104.063 15.6616 104.111 15.668C104.159 15.6745 104.208 15.6699 104.254 15.6546H104.234ZM113.921 15.5746C114.001 15.5749 114.078 15.5454 114.137 15.4917C114.196 15.4381 114.233 15.3642 114.24 15.2847C114.249 15.2013 114.224 15.118 114.172 15.0525C114.12 14.9871 114.044 14.9449 113.961 14.9348C113.313 14.8548 112.656 14.7948 111.968 14.7548C111.926 14.7521 111.884 14.7578 111.844 14.7714C111.805 14.785 111.768 14.8064 111.736 14.8342C111.705 14.8621 111.679 14.8959 111.661 14.9337C111.642 14.9716 111.632 15.0127 111.629 15.0548C111.625 15.0971 111.63 15.1398 111.643 15.1802C111.656 15.2207 111.677 15.258 111.705 15.2899C111.733 15.3218 111.767 15.3475 111.806 15.3655C111.844 15.3836 111.886 15.3935 111.928 15.3947C112.566 15.4446 113.214 15.4946 113.842 15.5746H113.921ZM108.101 15.3347C108.749 15.3347 109.387 15.3347 110.034 15.3347C110.076 15.336 110.117 15.329 110.156 15.314C110.194 15.299 110.23 15.2764 110.259 15.2475C110.289 15.2186 110.313 15.184 110.329 15.1457C110.345 15.1074 110.353 15.0663 110.353 15.0248C110.355 14.9828 110.348 14.9409 110.333 14.9016C110.318 14.8622 110.296 14.8262 110.267 14.7956C110.238 14.765 110.204 14.7403 110.166 14.723C110.128 14.7057 110.086 14.6962 110.044 14.6949C109.387 14.6949 108.739 14.6949 108.051 14.6949C108.008 14.6961 107.966 14.706 107.927 14.7239C107.889 14.7418 107.854 14.7674 107.825 14.7991C107.796 14.8308 107.774 14.868 107.76 14.9085C107.745 14.949 107.739 14.9919 107.742 15.0348C107.744 15.0806 107.756 15.1255 107.777 15.1664C107.798 15.2073 107.827 15.2431 107.863 15.2716C107.899 15.3 107.941 15.3204 107.985 15.3313C108.03 15.3422 108.076 15.3433 108.121 15.3347H108.101ZM99.48 14.225C99.5525 14.2259 99.6231 14.2011 99.6792 14.1551C99.7383 14.0952 99.7714 14.0143 99.7714 13.9301C99.7714 13.8459 99.7383 13.7651 99.6792 13.7052C99.2806 13.1853 98.862 12.7055 98.4434 12.1757C98.3837 12.1165 98.3031 12.0832 98.2192 12.0832C98.1352 12.0832 98.0547 12.1165 97.995 12.1757C97.9353 12.2372 97.9019 12.3197 97.9019 12.4056C97.9019 12.4915 97.9353 12.5739 97.995 12.6355C98.4036 13.1154 98.8221 13.6352 99.2108 14.125C99.2424 14.1719 99.2857 14.2096 99.3365 14.2342C99.3873 14.2587 99.4436 14.2694 99.4998 14.265L99.48 14.225ZM96.9484 11.226C96.9891 11.2262 97.0294 11.2183 97.067 11.2029C97.1047 11.1875 97.1389 11.1647 97.1677 11.136C97.1982 11.107 97.2224 11.0722 97.239 11.0335C97.2556 10.9948 97.2641 10.9532 97.2641 10.9111C97.2641 10.869 97.2556 10.8273 97.239 10.7887C97.2224 10.75 97.1982 10.7151 97.1677 10.6862C96.7192 10.2063 96.2508 9.74645 95.7724 9.30658C95.7435 9.27603 95.7087 9.2517 95.6702 9.23507C95.6316 9.21844 95.5901 9.20984 95.5482 9.20984C95.5062 9.20984 95.4646 9.21844 95.4261 9.23507C95.3875 9.2517 95.3527 9.27603 95.3239 9.30658C95.2931 9.33641 95.2687 9.37212 95.252 9.41162C95.2353 9.45112 95.2267 9.49359 95.2267 9.53649C95.2267 9.5794 95.2353 9.62186 95.252 9.66136C95.2687 9.70086 95.2931 9.7366 95.3239 9.76643C95.7923 10.1963 96.2508 10.6562 96.6993 11.116C96.7255 11.1639 96.7647 11.2034 96.8123 11.2299C96.8599 11.2564 96.914 11.2689 96.9684 11.266L96.9484 11.226ZM94.108 8.5768C94.2022 8.5744 94.2917 8.53492 94.3572 8.46685C94.4168 8.40528 94.4502 8.32278 94.4502 8.23692C94.4502 8.15105 94.4168 8.06855 94.3572 8.00698C93.8489 7.58711 93.3605 7.18726 92.8024 6.80738C92.7678 6.78267 92.7287 6.76512 92.6873 6.75576C92.646 6.7464 92.6031 6.74541 92.5614 6.75286C92.5196 6.76031 92.4798 6.77605 92.4441 6.79914C92.4085 6.82223 92.3778 6.85221 92.3539 6.88734C92.3287 6.92137 92.3106 6.96007 92.3005 7.00119C92.2904 7.04232 92.2886 7.08504 92.2951 7.12689C92.3015 7.16873 92.3162 7.20888 92.3383 7.24498C92.3604 7.28108 92.3894 7.31244 92.4236 7.33721C92.9419 7.71042 93.4502 8.10028 93.9485 8.50682C93.9936 8.56338 94.0572 8.60231 94.1279 8.6168L94.108 8.5768ZM90.9486 6.31751C91.0024 6.31732 91.0554 6.30349 91.1024 6.27727C91.1495 6.25105 91.1891 6.2133 91.2177 6.16756C91.2629 6.09437 91.2778 6.00633 91.2592 5.92228C91.2405 5.83823 91.1899 5.76483 91.118 5.71773C90.5599 5.37783 89.9818 5.04794 89.4038 4.71804C89.3269 4.67921 89.238 4.67211 89.1561 4.69827C89.0741 4.72444 89.0056 4.78176 88.9652 4.85798C88.927 4.93356 88.9202 5.02126 88.9464 5.10186C88.9725 5.18246 89.0295 5.24935 89.1048 5.28784C89.6729 5.58774 90.231 5.90764 90.7791 6.28752C90.8044 6.3113 90.8343 6.32974 90.8668 6.34176C90.8993 6.35378 90.9339 6.35914 90.9685 6.35751L90.9486 6.31751ZM87.5002 4.51809C87.5632 4.51958 87.6252 4.50235 87.6784 4.46855C87.7316 4.43475 87.7736 4.38589 87.7992 4.32815C87.8156 4.28943 87.8242 4.24786 87.8246 4.20578C87.825 4.16371 87.817 4.12196 87.8013 4.08296C87.7856 4.04396 87.7623 4.00844 87.7329 3.97847C87.7034 3.9485 87.6684 3.92467 87.6298 3.9083C87.0318 3.64838 86.4138 3.40846 85.7959 3.18853C85.756 3.17439 85.7137 3.16835 85.6715 3.17077C85.6292 3.17319 85.5879 3.18401 85.5498 3.20262C85.5118 3.22123 85.4779 3.24723 85.45 3.27914C85.422 3.31104 85.4007 3.3482 85.3873 3.38845C85.3732 3.42847 85.3672 3.47091 85.3696 3.51328C85.372 3.55566 85.3828 3.59711 85.4013 3.63525C85.4199 3.6734 85.4458 3.70748 85.4776 3.73547C85.5094 3.76347 85.5465 3.78483 85.5866 3.79832C86.1846 4.00825 86.7926 4.24819 87.3706 4.49811C87.4145 4.5306 87.466 4.55125 87.5201 4.55809L87.5002 4.51809ZM62.6835 3.71836H62.7533L64.647 3.31846C64.6892 3.31129 64.7295 3.29567 64.7656 3.27252C64.8017 3.24936 64.8327 3.21916 64.8569 3.18371C64.8811 3.14826 64.8979 3.10827 64.9064 3.06616C64.9148 3.02405 64.9148 2.98068 64.9061 2.93861C64.887 2.85617 64.837 2.78426 64.7665 2.73774C64.696 2.69123 64.6104 2.67366 64.5274 2.68869C63.8895 2.80865 63.2517 2.9486 62.6138 3.08855C62.5317 3.10773 62.46 3.15785 62.4136 3.22855C62.3672 3.29926 62.3497 3.38515 62.3647 3.46844C62.3767 3.54967 62.4177 3.62376 62.4799 3.67705C62.5422 3.73034 62.6216 3.75922 62.7035 3.75832L62.6835 3.71836ZM83.8325 3.2385C83.9049 3.2408 83.976 3.21829 84.0339 3.17468C84.0919 3.13107 84.1334 3.06897 84.1515 2.99859C84.1619 2.95789 84.1643 2.91549 84.1585 2.87387C84.1526 2.83224 84.1387 2.79219 84.1174 2.75599C84.0961 2.71978 84.0679 2.68812 84.0344 2.66285C84.0009 2.63757 83.9628 2.61918 83.9222 2.60869C83.2943 2.43875 82.6565 2.27881 82.0086 2.14885C81.9242 2.13413 81.8374 2.15305 81.7666 2.2016C81.6959 2.25014 81.6468 2.32449 81.6299 2.40878C81.6149 2.49207 81.6324 2.57792 81.6788 2.64863C81.7252 2.71933 81.7969 2.76946 81.8791 2.78863C82.5169 2.90859 83.1448 3.05855 83.7528 3.22849L83.8325 3.2385ZM66.4908 2.95859H66.5506C67.215 2.84529 67.8529 2.74534 68.4642 2.6587C68.548 2.64397 68.6229 2.59717 68.6731 2.52818C68.7233 2.4592 68.7448 2.37339 68.7332 2.28879C68.7284 2.24697 68.7152 2.20659 68.6943 2.17008C68.6734 2.13358 68.6453 2.10171 68.6117 2.07645C68.5781 2.0512 68.5398 2.03309 68.499 2.02319C68.4582 2.01329 68.4158 2.01182 68.3745 2.01888C67.7266 2.10886 67.0888 2.20881 66.4409 2.31878C66.3577 2.33342 66.2837 2.38061 66.2351 2.44996C66.1865 2.51931 66.1673 2.60518 66.1818 2.68869C66.1817 2.73112 66.1904 2.7731 66.2071 2.81206C66.2239 2.85102 66.2484 2.88612 66.2793 2.91518C66.3101 2.94423 66.3466 2.96664 66.3864 2.98098C66.4262 2.99533 66.4685 3.00132 66.5107 2.99859L66.4908 2.95859ZM80.0353 2.46875C80.1128 2.46729 80.1873 2.43839 80.2457 2.38718C80.3041 2.33596 80.3425 2.26572 80.3542 2.18884C80.3598 2.14678 80.3569 2.10402 80.3459 2.06306C80.3348 2.0221 80.3158 1.98376 80.2898 1.95027C80.2638 1.91678 80.2315 1.88879 80.1946 1.86796C80.1577 1.84713 80.1171 1.83388 80.0751 1.82894C79.4373 1.73897 78.7795 1.669 78.0818 1.61902C78.0404 1.61491 77.9987 1.6192 77.959 1.63168C77.9193 1.64415 77.8826 1.66456 77.8509 1.69163C77.8193 1.7187 77.7934 1.75188 77.7748 1.78922C77.7563 1.82656 77.7455 1.86729 77.743 1.90893C77.7389 1.95098 77.7431 1.99341 77.7554 2.0338C77.7677 2.0742 77.7879 2.11174 77.8148 2.14427C77.8417 2.1768 77.8747 2.20369 77.912 2.22335C77.9493 2.24301 77.9901 2.25504 78.032 2.2588C78.6798 2.30878 79.3276 2.37878 79.9456 2.46875H80.0353ZM70.3379 2.41875C70.9757 2.34877 71.6236 2.29881 72.2614 2.24882C72.3033 2.24628 72.3443 2.23545 72.382 2.21697C72.4198 2.1985 72.4535 2.17274 72.4813 2.14116C72.509 2.10958 72.5303 2.0728 72.5439 2.03295C72.5575 1.9931 72.5631 1.95096 72.5604 1.90893C72.5579 1.86598 72.5468 1.82396 72.5278 1.78541C72.5088 1.74686 72.4821 1.71258 72.4496 1.68458C72.417 1.65658 72.3791 1.63545 72.3382 1.62246C72.2973 1.60948 72.2542 1.60491 72.2115 1.60901C71.5637 1.60901 70.9159 1.70899 70.2182 1.77897C70.1763 1.78273 70.1355 1.79476 70.0982 1.81442C70.0609 1.83408 70.0279 1.86097 70.0011 1.8935C69.9742 1.92603 69.954 1.96357 69.9417 2.00397C69.9294 2.04436 69.9251 2.08679 69.9292 2.12884C69.9242 2.18274 69.9328 2.23708 69.9544 2.28671C69.976 2.33635 70.0098 2.37968 70.0526 2.41265C70.0954 2.44562 70.1459 2.46713 70.1992 2.47519C70.2526 2.48326 70.3072 2.4776 70.3578 2.45875L70.3379 2.41875ZM76.1583 2.15886C76.2422 2.15901 76.323 2.12698 76.3841 2.06938C76.4452 2.01177 76.4821 1.93291 76.4872 1.84893C76.4885 1.80608 76.4813 1.76342 76.4659 1.72345C76.4504 1.68347 76.4271 1.64701 76.3974 1.61624C76.3676 1.58547 76.332 1.561 76.2927 1.5443C76.2533 1.52761 76.211 1.51902 76.1683 1.51904C75.5204 1.51904 74.8627 1.51904 74.175 1.51904C74.1322 1.51902 74.0899 1.52761 74.0506 1.5443C74.0112 1.561 73.9756 1.58547 73.9458 1.61624C73.9161 1.64701 73.8928 1.68347 73.8774 1.72345C73.862 1.76342 73.8547 1.80608 73.856 1.84893C73.8586 1.93202 73.8933 2.01086 73.9529 2.0687C74.0124 2.12655 74.0921 2.1589 74.175 2.15886H76.1185H76.1583Z" fill="#999999"/>
<path d="M26.3655 76.1058L23.555 77.3254L12.3227 69.4679L9.33273 71.1274C6.9308 72.5669 4.59864 72.6669 3.48239 72.0271L3.25312 72.137C1.51894 72.8968 0.492397 72.217 0.14357 71.3973C-0.205257 70.5775 -0.00590134 69.3979 1.72827 68.6181L1.95748 68.5182C2.16678 67.5185 3.07378 65.839 6.61189 64.8493L9.8709 63.7997L11.8642 50.214L14.6748 48.9844L16.8574 61.5704L24.8904 58.8112L26.1064 55.5823L28.3389 54.7525L28.4983 57.7516L29.2956 57.6816L30.0232 59.3511L29.4252 59.9409L31.5381 62.1402L29.4053 63.2098L26.236 61.8903L18.7311 65.889L26.3655 76.1058ZM26.1562 61.1605L29.3455 62.4901L30.3422 61.9703L28.4086 59.9709L29.1362 59.2311L28.7973 58.4414L27.8006 58.5313L27.6512 55.7322L26.5648 56.1321L25.3489 59.3711L16.2595 62.4801L14.0967 49.9741L12.4123 50.7038L10.4689 64.3395L6.79128 65.5191C3.3628 66.4688 2.68504 68.0083 2.58538 68.8381V69.048L2.38604 69.118C2.25941 69.1542 2.13606 69.201 2.01728 69.258C0.950863 69.7178 0.472479 70.4476 0.781441 71.1473C1.0904 71.8471 1.93754 72.0071 3.00395 71.5372C3.12395 71.4886 3.24054 71.4318 3.35282 71.3673L3.54218 71.2573L3.72157 71.3873C4.44913 71.9271 6.572 72.0271 9.02377 70.5675L12.3725 68.6881L23.6346 76.5756L25.319 75.8459L17.6847 65.7091L26.1562 61.1605Z" fill="#999999"/>
</svg>
